<mxfile host="65bd71144e">
    <diagram id="frc9HJcpXRsw3Fn3oxXC" name="Page-1">
        <mxGraphModel dx="1767" dy="1876" grid="1" gridSize="10" guides="1" tooltips="1" connect="1" arrows="1" fold="1" page="1" pageScale="1" pageWidth="827" pageHeight="1169" math="0" shadow="0">
            <root>
                <mxCell id="0"/>
                <mxCell id="1" parent="0"/>
                <mxCell id="2" value="&lt;b&gt;&lt;i&gt;&lt;u&gt;Guess the Phonetics&lt;/u&gt;&lt;/i&gt;&lt;/b&gt;" style="whiteSpace=wrap;html=1;sketch=1;hachureGap=4;jiggle=2;curveFitting=1;fontFamily=Architects Daughter;fontSource=https%3A%2F%2Ffonts.googleapis.com%2Fcss%3Ffamily%3DArchitects%2BDaughter;fontSize=20;" parent="1" vertex="1">
                    <mxGeometry x="294" y="10" width="240" height="60" as="geometry"/>
                </mxCell>
                <mxCell id="5" value="" style="endArrow=none;dashed=1;html=1;dashPattern=1 3;strokeWidth=2;sketch=1;hachureGap=4;jiggle=2;curveFitting=1;fontFamily=Architects Daughter;fontSource=https%3A%2F%2Ffonts.googleapis.com%2Fcss%3Ffamily%3DArchitects%2BDaughter;fontSize=16;entryX=0.5;entryY=1;entryDx=0;entryDy=0;" parent="1" target="2" edge="1">
                    <mxGeometry width="50" height="50" relative="1" as="geometry">
                        <mxPoint x="410" y="994" as="sourcePoint"/>
                        <mxPoint x="380" y="340" as="targetPoint"/>
                    </mxGeometry>
                </mxCell>
                <mxCell id="6" value="HTML" style="text;html=1;align=center;verticalAlign=middle;resizable=0;points=[];autosize=1;strokeColor=none;fillColor=none;fontSize=20;fontFamily=Architects Daughter;sketch=1;hachureGap=4;jiggle=2;curveFitting=1;fontSource=https%3A%2F%2Ffonts.googleapis.com%2Fcss%3Ffamily%3DArchitects%2BDaughter;" parent="1" vertex="1">
                    <mxGeometry x="80" y="120" width="80" height="40" as="geometry"/>
                </mxCell>
                <mxCell id="7" value="JS" style="text;html=1;align=center;verticalAlign=middle;resizable=0;points=[];autosize=1;strokeColor=none;fillColor=none;fontSize=20;fontFamily=Architects Daughter;sketch=1;hachureGap=4;jiggle=2;curveFitting=1;fontSource=https%3A%2F%2Ffonts.googleapis.com%2Fcss%3Ffamily%3DArchitects%2BDaughter;" parent="1" vertex="1">
                    <mxGeometry x="670" y="120" width="50" height="40" as="geometry"/>
                </mxCell>
                <mxCell id="8" value="" style="endArrow=none;dashed=1;html=1;dashPattern=1 3;strokeWidth=2;sketch=1;hachureGap=4;jiggle=2;curveFitting=1;fontFamily=Architects Daughter;fontSource=https%3A%2F%2Ffonts.googleapis.com%2Fcss%3Ffamily%3DArchitects%2BDaughter;fontSize=16;" parent="1" edge="1">
                    <mxGeometry width="50" height="50" relative="1" as="geometry">
                        <mxPoint x="830" y="160" as="sourcePoint"/>
                        <mxPoint y="160" as="targetPoint"/>
                    </mxGeometry>
                </mxCell>
                <mxCell id="11" value="&lt;span style=&quot;&quot;&gt;Phonetics container&lt;br&gt;&lt;br&gt;Word:&amp;nbsp;&lt;/span&gt;&lt;span style=&quot;color: rgb(5, 22, 31); font-family: __Inter_8f9154, __Inter_Fallback_8f9154, ui-sans-serif, system-ui, -apple-system, &amp;quot;system-ui&amp;quot;, &amp;quot;Segoe UI&amp;quot;, Roboto, &amp;quot;Helvetica Neue&amp;quot;, Arial, &amp;quot;Noto Sans&amp;quot;, sans-serif, &amp;quot;Apple Color Emoji&amp;quot;, &amp;quot;Segoe UI Emoji&amp;quot;, &amp;quot;Segoe UI Symbol&amp;quot;, &amp;quot;Noto Color Emoji&amp;quot;; font-size: 16px; text-align: left; background-color: rgb(233, 245, 251);&quot;&gt;speɪsˌmæn&lt;/span&gt;&lt;span style=&quot;&quot;&gt;&lt;br&gt;&lt;/span&gt;" style="rounded=0;whiteSpace=wrap;html=1;sketch=1;hachureGap=4;jiggle=2;curveFitting=1;fontFamily=Architects Daughter;fontSource=https%3A%2F%2Ffonts.googleapis.com%2Fcss%3Ffamily%3DArchitects%2BDaughter;fontSize=20;" parent="1" vertex="1">
                    <mxGeometry x="70" y="210" width="250" height="130" as="geometry"/>
                </mxCell>
                <mxCell id="25" style="edgeStyle=none;sketch=1;hachureGap=4;jiggle=2;curveFitting=1;html=1;entryX=0.5;entryY=0;entryDx=0;entryDy=0;fontFamily=Architects Daughter;fontSource=https%3A%2F%2Ffonts.googleapis.com%2Fcss%3Ffamily%3DArchitects%2BDaughter;fontSize=16;" parent="1" source="13" target="24" edge="1">
                    <mxGeometry relative="1" as="geometry"/>
                </mxCell>
                <mxCell id="13" value="display random&amp;nbsp; phonetic word" style="whiteSpace=wrap;html=1;sketch=1;hachureGap=4;jiggle=2;curveFitting=1;fontFamily=Architects Daughter;fontSource=https%3A%2F%2Ffonts.googleapis.com%2Fcss%3Ffamily%3DArchitects%2BDaughter;fontSize=20;" parent="1" vertex="1">
                    <mxGeometry x="-510" y="100" width="160" height="90" as="geometry"/>
                </mxCell>
                <mxCell id="15" style="edgeStyle=none;sketch=1;hachureGap=4;jiggle=2;curveFitting=1;html=1;fontFamily=Architects Daughter;fontSource=https%3A%2F%2Ffonts.googleapis.com%2Fcss%3Ffamily%3DArchitects%2BDaughter;fontSize=16;entryX=1;entryY=0.5;entryDx=0;entryDy=0;" parent="1" source="14" target="24" edge="1">
                    <mxGeometry relative="1" as="geometry">
                        <Array as="points">
                            <mxPoint x="-300" y="270"/>
                        </Array>
                        <mxPoint x="-310" y="150" as="targetPoint"/>
                    </mxGeometry>
                </mxCell>
                <mxCell id="18" style="edgeStyle=none;sketch=1;hachureGap=4;jiggle=2;curveFitting=1;html=1;fontFamily=Architects Daughter;fontSource=https%3A%2F%2Ffonts.googleapis.com%2Fcss%3Ffamily%3DArchitects%2BDaughter;fontSize=16;entryX=0.5;entryY=0;entryDx=0;entryDy=0;" parent="1" source="14" target="20" edge="1">
                    <mxGeometry relative="1" as="geometry">
                        <mxPoint x="-450" y="490" as="targetPoint"/>
                    </mxGeometry>
                </mxCell>
                <mxCell id="14" value="correct word?" style="whiteSpace=wrap;html=1;sketch=1;hachureGap=4;jiggle=2;curveFitting=1;fontFamily=Architects Daughter;fontSource=https%3A%2F%2Ffonts.googleapis.com%2Fcss%3Ffamily%3DArchitects%2BDaughter;fontSize=20;" parent="1" vertex="1">
                    <mxGeometry x="-555" y="350" width="210" height="110" as="geometry"/>
                </mxCell>
                <mxCell id="16" value="No" style="text;html=1;align=center;verticalAlign=middle;resizable=0;points=[];autosize=1;strokeColor=none;fillColor=none;fontSize=20;fontFamily=Architects Daughter;sketch=1;hachureGap=4;jiggle=2;curveFitting=1;fontSource=https%3A%2F%2Ffonts.googleapis.com%2Fcss%3Ffamily%3DArchitects%2BDaughter;" parent="1" vertex="1">
                    <mxGeometry x="-330" y="300" width="50" height="40" as="geometry"/>
                </mxCell>
                <mxCell id="22" style="edgeStyle=none;sketch=1;hachureGap=4;jiggle=2;curveFitting=1;html=1;entryX=0;entryY=0.5;entryDx=0;entryDy=0;fontFamily=Architects Daughter;fontSource=https%3A%2F%2Ffonts.googleapis.com%2Fcss%3Ffamily%3DArchitects%2BDaughter;fontSize=16;" parent="1" source="20" target="13" edge="1">
                    <mxGeometry relative="1" as="geometry">
                        <Array as="points">
                            <mxPoint x="-680" y="490"/>
                            <mxPoint x="-690" y="300"/>
                        </Array>
                    </mxGeometry>
                </mxCell>
                <mxCell id="20" value="next word" style="rounded=0;whiteSpace=wrap;html=1;sketch=1;hachureGap=4;jiggle=2;curveFitting=1;fontFamily=Architects Daughter;fontSource=https%3A%2F%2Ffonts.googleapis.com%2Fcss%3Ffamily%3DArchitects%2BDaughter;fontSize=20;" parent="1" vertex="1">
                    <mxGeometry x="-510" y="525" width="120" height="60" as="geometry"/>
                </mxCell>
                <mxCell id="23" value="MVP 1 - User Experience" style="text;html=1;align=center;verticalAlign=middle;resizable=0;points=[];autosize=1;strokeColor=none;fillColor=none;fontSize=20;fontFamily=Architects Daughter;sketch=1;hachureGap=4;jiggle=2;curveFitting=1;fontSource=https%3A%2F%2Ffonts.googleapis.com%2Fcss%3Ffamily%3DArchitects%2BDaughter;" parent="1" vertex="1">
                    <mxGeometry x="-785" y="90" width="250" height="40" as="geometry"/>
                </mxCell>
                <mxCell id="26" style="edgeStyle=none;sketch=1;hachureGap=4;jiggle=2;curveFitting=1;html=1;entryX=0.5;entryY=0;entryDx=0;entryDy=0;fontFamily=Architects Daughter;fontSource=https%3A%2F%2Ffonts.googleapis.com%2Fcss%3Ffamily%3DArchitects%2BDaughter;fontSize=16;" parent="1" source="24" target="14" edge="1">
                    <mxGeometry relative="1" as="geometry"/>
                </mxCell>
                <mxCell id="24" value="user guesses word" style="whiteSpace=wrap;html=1;sketch=1;hachureGap=4;jiggle=2;curveFitting=1;fontFamily=Architects Daughter;fontSource=https%3A%2F%2Ffonts.googleapis.com%2Fcss%3Ffamily%3DArchitects%2BDaughter;fontSize=20;" parent="1" vertex="1">
                    <mxGeometry x="-510" y="240" width="130" height="70" as="geometry"/>
                </mxCell>
                <mxCell id="27" value="yes" style="text;html=1;align=center;verticalAlign=middle;resizable=0;points=[];autosize=1;strokeColor=none;fillColor=none;fontSize=20;fontFamily=Architects Daughter;sketch=1;hachureGap=4;jiggle=2;curveFitting=1;fontSource=https%3A%2F%2Ffonts.googleapis.com%2Fcss%3Ffamily%3DArchitects%2BDaughter;" parent="1" vertex="1">
                    <mxGeometry x="-450" y="470" width="60" height="40" as="geometry"/>
                </mxCell>
                <mxCell id="28" value="" style="whiteSpace=wrap;html=1;sketch=1;hachureGap=4;jiggle=2;curveFitting=1;fontFamily=Architects Daughter;fontSource=https%3A%2F%2Ffonts.googleapis.com%2Fcss%3Ffamily%3DArchitects%2BDaughter;fontSize=20;" parent="1" vertex="1">
                    <mxGeometry x="-750" y="630" width="650" height="360" as="geometry"/>
                </mxCell>
                <mxCell id="29" value="&lt;div style=&quot;text-align: left;&quot;&gt;&lt;font size=&quot;1&quot; face=&quot;__Inter_8f9154, __Inter_Fallback_8f9154, ui-sans-serif, system-ui, -apple-system, system-ui, Segoe UI, Roboto, Helvetica Neue, Arial, Noto Sans, sans-serif, Apple Color Emoji, Segoe UI Emoji, Segoe UI Symbol, Noto Color Emoji&quot; color=&quot;#05161f&quot;&gt;&lt;span style=&quot;background-color: rgb(233, 245, 251); font-size: 28px;&quot;&gt;speɪsˌmæn&lt;/span&gt;&lt;/font&gt;&lt;/div&gt;" style="whiteSpace=wrap;html=1;sketch=1;hachureGap=4;jiggle=2;curveFitting=1;fontFamily=Architects Daughter;fontSource=https%3A%2F%2Ffonts.googleapis.com%2Fcss%3Ffamily%3DArchitects%2BDaughter;fontSize=20;" parent="1" vertex="1">
                    <mxGeometry x="-540" y="720" width="250" height="70" as="geometry"/>
                </mxCell>
                <mxCell id="30" value="Phonetic" style="text;html=1;align=center;verticalAlign=middle;resizable=0;points=[];autosize=1;strokeColor=none;fillColor=none;fontSize=28;fontFamily=Architects Daughter;sketch=1;hachureGap=4;jiggle=2;curveFitting=1;fontSource=https%3A%2F%2Ffonts.googleapis.com%2Fcss%3Ffamily%3DArchitects%2BDaughter;" parent="1" vertex="1">
                    <mxGeometry x="-480" y="680" width="130" height="50" as="geometry"/>
                </mxCell>
                <mxCell id="31" value="Spaceman" style="whiteSpace=wrap;html=1;sketch=1;hachureGap=4;jiggle=2;curveFitting=1;fontFamily=Architects Daughter;fontSource=https%3A%2F%2Ffonts.googleapis.com%2Fcss%3Ffamily%3DArchitects%2BDaughter;fontSize=28;" parent="1" vertex="1">
                    <mxGeometry x="-505" y="830" width="180" height="60" as="geometry"/>
                </mxCell>
                <mxCell id="32" value="user guess =" style="text;html=1;align=center;verticalAlign=middle;resizable=0;points=[];autosize=1;strokeColor=none;fillColor=none;fontSize=28;fontFamily=Architects Daughter;sketch=1;hachureGap=4;jiggle=2;curveFitting=1;fontSource=https%3A%2F%2Ffonts.googleapis.com%2Fcss%3Ffamily%3DArchitects%2BDaughter;" parent="1" vertex="1">
                    <mxGeometry x="-695" y="835" width="190" height="50" as="geometry"/>
                </mxCell>
                <mxCell id="42" style="edgeStyle=none;sketch=1;hachureGap=4;jiggle=2;curveFitting=1;html=1;fontFamily=Architects Daughter;fontSource=https%3A%2F%2Ffonts.googleapis.com%2Fcss%3Ffamily%3DArchitects%2BDaughter;fontSize=28;" parent="1" source="37" target="41" edge="1">
                    <mxGeometry relative="1" as="geometry"/>
                </mxCell>
                <mxCell id="37" value="&lt;span style=&quot;&quot;&gt;on click EL&lt;/span&gt;" style="whiteSpace=wrap;html=1;sketch=1;hachureGap=4;jiggle=2;curveFitting=1;fontFamily=Architects Daughter;fontSource=https%3A%2F%2Ffonts.googleapis.com%2Fcss%3Ffamily%3DArchitects%2BDaughter;fontSize=28;" parent="1" vertex="1">
                    <mxGeometry x="460" y="200" width="120" height="60" as="geometry"/>
                </mxCell>
                <mxCell id="43" style="edgeStyle=none;sketch=1;hachureGap=4;jiggle=2;curveFitting=1;html=1;fontFamily=Architects Daughter;fontSource=https%3A%2F%2Ffonts.googleapis.com%2Fcss%3Ffamily%3DArchitects%2BDaughter;fontSize=28;" parent="1" source="38" target="41" edge="1">
                    <mxGeometry relative="1" as="geometry"/>
                </mxCell>
                <mxCell id="38" value="&lt;span style=&quot;&quot;&gt;On DOM load EL&lt;/span&gt;" style="whiteSpace=wrap;html=1;sketch=1;hachureGap=4;jiggle=2;curveFitting=1;fontFamily=Architects Daughter;fontSource=https%3A%2F%2Ffonts.googleapis.com%2Fcss%3Ffamily%3DArchitects%2BDaughter;fontSize=28;" parent="1" vertex="1">
                    <mxGeometry x="650" y="200" width="120" height="60" as="geometry"/>
                </mxCell>
                <mxCell id="50" style="edgeStyle=none;sketch=1;hachureGap=4;jiggle=2;curveFitting=1;html=1;entryX=0.5;entryY=0;entryDx=0;entryDy=0;fontFamily=Architects Daughter;fontSource=https%3A%2F%2Ffonts.googleapis.com%2Fcss%3Ffamily%3DArchitects%2BDaughter;fontSize=28;" parent="1" source="39" target="49" edge="1">
                    <mxGeometry relative="1" as="geometry"/>
                </mxCell>
                <mxCell id="39" value="calls dictionary API for that particular word" style="whiteSpace=wrap;html=1;sketch=1;hachureGap=4;jiggle=2;curveFitting=1;fontFamily=Architects Daughter;fontSource=https%3A%2F%2Ffonts.googleapis.com%2Fcss%3Ffamily%3DArchitects%2BDaughter;fontSize=28;" parent="1" vertex="1">
                    <mxGeometry x="555" y="770" width="170" height="190" as="geometry"/>
                </mxCell>
                <mxCell id="45" style="edgeStyle=none;sketch=1;hachureGap=4;jiggle=2;curveFitting=1;html=1;entryX=0.539;entryY=-0.005;entryDx=0;entryDy=0;entryPerimeter=0;fontFamily=Architects Daughter;fontSource=https%3A%2F%2Ffonts.googleapis.com%2Fcss%3Ffamily%3DArchitects%2BDaughter;fontSize=28;" parent="1" source="41" target="44" edge="1">
                    <mxGeometry relative="1" as="geometry"/>
                </mxCell>
                <mxCell id="41" value="random word gen API initiated" style="whiteSpace=wrap;html=1;sketch=1;hachureGap=4;jiggle=2;curveFitting=1;fontFamily=Architects Daughter;fontSource=https%3A%2F%2Ffonts.googleapis.com%2Fcss%3Ffamily%3DArchitects%2BDaughter;fontSize=28;" parent="1" vertex="1">
                    <mxGeometry x="520" y="310" width="240" height="130" as="geometry"/>
                </mxCell>
                <mxCell id="46" style="edgeStyle=none;sketch=1;hachureGap=4;jiggle=2;curveFitting=1;html=1;fontFamily=Architects Daughter;fontSource=https%3A%2F%2Ffonts.googleapis.com%2Fcss%3Ffamily%3DArchitects%2BDaughter;fontSize=28;" parent="1" source="44" edge="1">
                    <mxGeometry relative="1" as="geometry">
                        <mxPoint x="634" y="650" as="targetPoint"/>
                    </mxGeometry>
                </mxCell>
                <mxCell id="44" value="Random word" style="text;html=1;align=center;verticalAlign=middle;resizable=0;points=[];autosize=1;strokeColor=none;fillColor=none;fontSize=28;fontFamily=Architects Daughter;sketch=1;hachureGap=4;jiggle=2;curveFitting=1;fontSource=https%3A%2F%2Ffonts.googleapis.com%2Fcss%3Ffamily%3DArchitects%2BDaughter;" parent="1" vertex="1">
                    <mxGeometry x="534" y="525" width="200" height="50" as="geometry"/>
                </mxCell>
                <mxCell id="48" style="edgeStyle=none;sketch=1;hachureGap=4;jiggle=2;curveFitting=1;html=1;fontFamily=Architects Daughter;fontSource=https%3A%2F%2Ffonts.googleapis.com%2Fcss%3Ffamily%3DArchitects%2BDaughter;fontSize=28;" parent="1" source="47" edge="1">
                    <mxGeometry relative="1" as="geometry">
                        <mxPoint x="640" y="760" as="targetPoint"/>
                    </mxGeometry>
                </mxCell>
                <mxCell id="47" value="dictionary URL" style="text;html=1;align=center;verticalAlign=middle;resizable=0;points=[];autosize=1;strokeColor=none;fillColor=none;fontSize=28;fontFamily=Architects Daughter;sketch=1;hachureGap=4;jiggle=2;curveFitting=1;fontSource=https%3A%2F%2Ffonts.googleapis.com%2Fcss%3Ffamily%3DArchitects%2BDaughter;" parent="1" vertex="1">
                    <mxGeometry x="524" y="655" width="220" height="50" as="geometry"/>
                </mxCell>
                <mxCell id="51" style="edgeStyle=none;sketch=1;hachureGap=4;jiggle=2;curveFitting=1;html=1;fontFamily=Architects Daughter;fontSource=https%3A%2F%2Ffonts.googleapis.com%2Fcss%3Ffamily%3DArchitects%2BDaughter;fontSize=28;" parent="1" source="49" edge="1">
                    <mxGeometry relative="1" as="geometry">
                        <mxPoint x="640" y="1140" as="targetPoint"/>
                    </mxGeometry>
                </mxCell>
                <mxCell id="49" value="Displays Phonetics" style="whiteSpace=wrap;html=1;sketch=1;hachureGap=4;jiggle=2;curveFitting=1;fontFamily=Architects Daughter;fontSource=https%3A%2F%2Ffonts.googleapis.com%2Fcss%3Ffamily%3DArchitects%2BDaughter;fontSize=28;" parent="1" vertex="1">
                    <mxGeometry x="580" y="1020" width="120" height="60" as="geometry"/>
                </mxCell>
                <mxCell id="56" value="" style="edgeStyle=none;sketch=1;hachureGap=4;jiggle=2;curveFitting=1;html=1;fontFamily=Architects Daughter;fontSource=https%3A%2F%2Ffonts.googleapis.com%2Fcss%3Ffamily%3DArchitects%2BDaughter;fontSize=28;fontColor=#CC0000;" parent="1" source="52" target="55" edge="1">
                    <mxGeometry relative="1" as="geometry"/>
                </mxCell>
                <mxCell id="52" value="user answer is compared to dictionary answer" style="whiteSpace=wrap;html=1;sketch=1;hachureGap=4;jiggle=2;curveFitting=1;fontFamily=Architects Daughter;fontSource=https%3A%2F%2Ffonts.googleapis.com%2Fcss%3Ffamily%3DArchitects%2BDaughter;fontSize=28;" parent="1" vertex="1">
                    <mxGeometry x="524" y="1140" width="250" height="140" as="geometry"/>
                </mxCell>
                <mxCell id="53" value="&lt;font color=&quot;#c8b7b7&quot;&gt;Issues faced so far:&lt;/font&gt;&lt;br&gt;&lt;br&gt;&lt;font color=&quot;#ff3333&quot;&gt;- It appears that we I can only fetch&lt;/font&gt;&lt;br&gt;&lt;font color=&quot;#ff3333&quot;&gt;one word at a time (not random) from &lt;br&gt;dictionary API&lt;/font&gt;&lt;br&gt;&lt;font color=&quot;#33ff33&quot;&gt;- Will use random word generator and&lt;br&gt;&lt;/font&gt;&lt;font color=&quot;#80ff00&quot;&gt;input this value into the dictionary API&lt;br&gt;URL/param&lt;/font&gt;" style="text;html=1;align=center;verticalAlign=middle;resizable=0;points=[];autosize=1;strokeColor=none;fillColor=none;fontSize=28;fontFamily=Architects Daughter;sketch=1;hachureGap=4;jiggle=2;curveFitting=1;fontSource=https%3A%2F%2Ffonts.googleapis.com%2Fcss%3Ffamily%3DArchitects%2BDaughter;" parent="1" vertex="1">
                    <mxGeometry x="845" y="-5" width="530" height="280" as="geometry"/>
                </mxCell>
                <mxCell id="54" value="&lt;font color=&quot;#cc0000&quot;&gt;- I worry that word complexity may be &lt;br&gt;an issue for the user, and not sure &lt;br&gt;how to retrieve less complex words &lt;br&gt;on a regular basis&lt;/font&gt;" style="text;html=1;align=center;verticalAlign=middle;resizable=0;points=[];autosize=1;strokeColor=none;fillColor=none;fontSize=28;fontFamily=Architects Daughter;fontColor=#80FF00;sketch=1;hachureGap=4;jiggle=2;curveFitting=1;fontSource=https%3A%2F%2Ffonts.googleapis.com%2Fcss%3Ffamily%3DArchitects%2BDaughter;" parent="1" vertex="1">
                    <mxGeometry x="840" y="360" width="540" height="150" as="geometry"/>
                </mxCell>
                <mxCell id="58" style="edgeStyle=none;sketch=1;hachureGap=4;jiggle=2;curveFitting=1;html=1;entryX=0;entryY=0.5;entryDx=0;entryDy=0;fontFamily=Architects Daughter;fontSource=https%3A%2F%2Ffonts.googleapis.com%2Fcss%3Ffamily%3DArchitects%2BDaughter;fontSize=28;fontColor=#CC0000;" parent="1" source="55" target="41" edge="1">
                    <mxGeometry relative="1" as="geometry">
                        <Array as="points">
                            <mxPoint x="430" y="1430"/>
                            <mxPoint x="440" y="375"/>
                        </Array>
                    </mxGeometry>
                </mxCell>
                <mxCell id="62" style="edgeStyle=none;sketch=1;hachureGap=4;jiggle=2;curveFitting=1;html=1;entryX=0.5;entryY=0;entryDx=0;entryDy=0;fontFamily=Architects Daughter;fontSource=https%3A%2F%2Ffonts.googleapis.com%2Fcss%3Ffamily%3DArchitects%2BDaughter;fontSize=28;fontColor=#CC0000;" parent="1" source="55" target="61" edge="1">
                    <mxGeometry relative="1" as="geometry"/>
                </mxCell>
                <mxCell id="55" value="correct?" style="whiteSpace=wrap;html=1;fontSize=28;fontFamily=Architects Daughter;sketch=1;hachureGap=4;jiggle=2;curveFitting=1;fontSource=https%3A%2F%2Ffonts.googleapis.com%2Fcss%3Ffamily%3DArchitects%2BDaughter;" parent="1" vertex="1">
                    <mxGeometry x="589" y="1400" width="120" height="60" as="geometry"/>
                </mxCell>
                <mxCell id="59" value="yes" style="text;html=1;align=center;verticalAlign=middle;resizable=0;points=[];autosize=1;strokeColor=none;fillColor=none;fontSize=28;fontFamily=Architects Daughter;fontColor=#CC0000;sketch=1;hachureGap=4;jiggle=2;curveFitting=1;fontSource=https%3A%2F%2Ffonts.googleapis.com%2Fcss%3Ffamily%3DArchitects%2BDaughter;" parent="1" vertex="1">
                    <mxGeometry x="465" y="1375" width="70" height="50" as="geometry"/>
                </mxCell>
                <mxCell id="60" value="no" style="text;html=1;align=center;verticalAlign=middle;resizable=0;points=[];autosize=1;strokeColor=none;fillColor=none;fontSize=28;fontFamily=Architects Daughter;fontColor=#CC0000;sketch=1;hachureGap=4;jiggle=2;curveFitting=1;fontSource=https%3A%2F%2Ffonts.googleapis.com%2Fcss%3Ffamily%3DArchitects%2BDaughter;" parent="1" vertex="1">
                    <mxGeometry x="675" y="1510" width="50" height="50" as="geometry"/>
                </mxCell>
                <mxCell id="63" style="edgeStyle=none;sketch=1;hachureGap=4;jiggle=2;curveFitting=1;html=1;entryX=1;entryY=0.5;entryDx=0;entryDy=0;fontFamily=Architects Daughter;fontSource=https%3A%2F%2Ffonts.googleapis.com%2Fcss%3Ffamily%3DArchitects%2BDaughter;fontSize=28;fontColor=#CC0000;" parent="1" source="61" target="55" edge="1">
                    <mxGeometry relative="1" as="geometry">
                        <Array as="points">
                            <mxPoint x="810" y="1520"/>
                        </Array>
                    </mxGeometry>
                </mxCell>
                <mxCell id="61" value="Display incorrect&amp;nbsp;" style="whiteSpace=wrap;html=1;sketch=1;hachureGap=4;jiggle=2;curveFitting=1;fontFamily=Architects Daughter;fontSource=https%3A%2F%2Ffonts.googleapis.com%2Fcss%3Ffamily%3DArchitects%2BDaughter;fontSize=28;fontColor=#CC0000;" parent="1" vertex="1">
                    <mxGeometry x="564" y="1580" width="180" height="120" as="geometry"/>
                </mxCell>
                <mxCell id="64" value="&lt;font color=&quot;#c51616&quot;&gt;-The dictionary does not provide phonetics for all words,&lt;br&gt;esepcially the more complex ones i.e 'Skullduggery'&lt;/font&gt;" style="text;html=1;align=center;verticalAlign=middle;resizable=0;points=[];autosize=1;strokeColor=none;fillColor=none;fontSize=20;fontFamily=Architects Daughter;sketch=1;hachureGap=4;jiggle=2;curveFitting=1;fontSource=https%3A%2F%2Ffonts.googleapis.com%2Fcss%3Ffamily%3DArchitects%2BDaughter;" parent="1" vertex="1">
                    <mxGeometry x="895" y="710" width="560" height="60" as="geometry"/>
                </mxCell>
                <mxCell id="65" value="JSON file does not always return in consistent&lt;br&gt;format - it depends on what info is available&lt;br&gt;for each particular word&amp;nbsp;&lt;br&gt;&lt;span style=&quot;color: rgb(22, 197, 83);&quot;&gt;added various params so that if the output is undefined,&lt;/span&gt;&lt;br style=&quot;color: rgb(22, 197, 83);&quot;&gt;&lt;span style=&quot;color: rgb(22, 197, 83);&quot;&gt;or not a phonetic number then it loops back round and looks&lt;/span&gt;&lt;br style=&quot;color: rgb(22, 197, 83);&quot;&gt;&lt;span style=&quot;color: rgb(22, 197, 83);&quot;&gt;until I am given a phonetic&amp;nbsp;&lt;/span&gt;" style="text;html=1;align=center;verticalAlign=middle;resizable=0;points=[];autosize=1;strokeColor=none;fillColor=none;fontSize=20;fontFamily=Architects Daughter;fontColor=#c51616;sketch=1;hachureGap=4;jiggle=2;curveFitting=1;fontSource=https%3A%2F%2Ffonts.googleapis.com%2Fcss%3Ffamily%3DArchitects%2BDaughter;" parent="1" vertex="1">
                    <mxGeometry x="880" y="770" width="590" height="160" as="geometry"/>
                </mxCell>
                <mxCell id="67" value="&lt;font color=&quot;#ffffff&quot;&gt;Code overview&lt;/font&gt;" style="whiteSpace=wrap;html=1;sketch=1;hachureGap=4;jiggle=2;curveFitting=1;fontFamily=Architects Daughter;fontSource=https%3A%2F%2Ffonts.googleapis.com%2Fcss%3Ffamily%3DArchitects%2BDaughter;fontSize=20;fontColor=#16c553;" parent="1" vertex="1">
                    <mxGeometry x="-760" y="1210" width="120" height="60" as="geometry"/>
                </mxCell>
                <mxCell id="69" value="&lt;meta charset=&quot;utf-8&quot;&gt;&lt;div style=&quot;color: rgb(197, 200, 198); background-color: rgb(30, 30, 30); font-family: Menlo, Monaco, &amp;quot;Courier New&amp;quot;, monospace; font-weight: normal; font-size: 15px; line-height: 23px;&quot;&gt;&lt;div&gt;&lt;span style=&quot;color: #9872a2;&quot;&gt;const&lt;/span&gt;&lt;span style=&quot;color: #c5c8c6;&quot;&gt; &lt;/span&gt;&lt;span style=&quot;color: #6089b4;&quot;&gt;userAnswer&lt;/span&gt;&lt;span style=&quot;color: #c5c8c6;&quot;&gt; &lt;/span&gt;&lt;span style=&quot;color: #676867;&quot;&gt;=&lt;/span&gt;&lt;span style=&quot;color: #c5c8c6;&quot;&gt; &lt;/span&gt;&lt;span style=&quot;color: #c7444a;&quot;&gt;document&lt;/span&gt;&lt;span style=&quot;color: #c5c8c6;&quot;&gt;.&lt;/span&gt;&lt;span style=&quot;color: #ce6700;&quot;&gt;getElementById&lt;/span&gt;&lt;span style=&quot;color: #c5c8c6;&quot;&gt;(&lt;/span&gt;&lt;span style=&quot;color: #9aa83a;&quot;&gt;&quot;userAnswer&quot;&lt;/span&gt;&lt;span style=&quot;color: #c5c8c6;&quot;&gt;);&lt;/span&gt;&lt;/div&gt;&lt;div&gt;&lt;span style=&quot;color: #9872a2;&quot;&gt;const&lt;/span&gt;&lt;span style=&quot;color: #c5c8c6;&quot;&gt; &lt;/span&gt;&lt;span style=&quot;color: #6089b4;&quot;&gt;phoneticsOutput&lt;/span&gt;&lt;span style=&quot;color: #c5c8c6;&quot;&gt; &lt;/span&gt;&lt;span style=&quot;color: #676867;&quot;&gt;=&lt;/span&gt;&lt;span style=&quot;color: #c5c8c6;&quot;&gt; &lt;/span&gt;&lt;span style=&quot;color: #c7444a;&quot;&gt;document&lt;/span&gt;&lt;span style=&quot;color: #c5c8c6;&quot;&gt;.&lt;/span&gt;&lt;span style=&quot;color: #ce6700;&quot;&gt;getElementById&lt;/span&gt;&lt;span style=&quot;color: #c5c8c6;&quot;&gt;(&lt;/span&gt;&lt;span style=&quot;color: #9aa83a;&quot;&gt;&quot;phoneticsOutput&quot;&lt;/span&gt;&lt;span style=&quot;color: #c5c8c6;&quot;&gt;);&lt;/span&gt;&lt;/div&gt;&lt;div&gt;&lt;span style=&quot;color: #9872a2;&quot;&gt;const&lt;/span&gt;&lt;span style=&quot;color: #c5c8c6;&quot;&gt; &lt;/span&gt;&lt;span style=&quot;color: #6089b4;&quot;&gt;submitBtn&lt;/span&gt;&lt;span style=&quot;color: #c5c8c6;&quot;&gt; &lt;/span&gt;&lt;span style=&quot;color: #676867;&quot;&gt;=&lt;/span&gt;&lt;span style=&quot;color: #c5c8c6;&quot;&gt; &lt;/span&gt;&lt;span style=&quot;color: #c7444a;&quot;&gt;document&lt;/span&gt;&lt;span style=&quot;color: #c5c8c6;&quot;&gt;.&lt;/span&gt;&lt;span style=&quot;color: #ce6700;&quot;&gt;getElementById&lt;/span&gt;&lt;span style=&quot;color: #c5c8c6;&quot;&gt;(&lt;/span&gt;&lt;span style=&quot;color: #9aa83a;&quot;&gt;&quot;submitBTN&quot;&lt;/span&gt;&lt;span style=&quot;color: #c5c8c6;&quot;&gt;);&lt;/span&gt;&lt;/div&gt;&lt;/div&gt;" style="text;whiteSpace=wrap;html=1;fontSize=20;fontFamily=Architects Daughter;fontColor=#FFFFFF;" parent="1" vertex="1">
                    <mxGeometry x="-490" y="1220" width="250" height="120" as="geometry"/>
                </mxCell>
                <mxCell id="73" style="edgeStyle=none;sketch=1;hachureGap=4;jiggle=2;curveFitting=1;html=1;entryX=0.5;entryY=0;entryDx=0;entryDy=0;fontFamily=Architects Daughter;fontSource=https%3A%2F%2Ffonts.googleapis.com%2Fcss%3Ffamily%3DArchitects%2BDaughter;fontSize=16;fontColor=#FFFFFF;" parent="1" source="70" target="71" edge="1">
                    <mxGeometry relative="1" as="geometry"/>
                </mxCell>
                <mxCell id="70" value="&lt;meta charset=&quot;utf-8&quot;&gt;&lt;div style=&quot;color: rgb(197, 200, 198); background-color: rgb(30, 30, 30); font-family: Menlo, Monaco, &amp;quot;Courier New&amp;quot;, monospace; font-weight: normal; font-size: 15px; line-height: 23px;&quot;&gt;&lt;div&gt;&lt;span style=&quot;color: #c7444a;&quot;&gt;document&lt;/span&gt;&lt;span style=&quot;color: #c5c8c6;&quot;&gt;.&lt;/span&gt;&lt;span style=&quot;color: #ce6700;&quot;&gt;addEventListener&lt;/span&gt;&lt;span style=&quot;color: #c5c8c6;&quot;&gt;(&lt;/span&gt;&lt;span style=&quot;color: #9aa83a;&quot;&gt;&quot;DOMContentLoaded&quot;&lt;/span&gt;&lt;span style=&quot;color: #c5c8c6;&quot;&gt;, &lt;/span&gt;&lt;span style=&quot;color: #ce6700;&quot;&gt;randoWord&lt;/span&gt;&lt;span style=&quot;color: #c5c8c6;&quot;&gt;);&lt;/span&gt;&lt;/div&gt;&lt;/div&gt;" style="text;whiteSpace=wrap;html=1;fontSize=20;fontFamily=Architects Daughter;fontColor=#FFFFFF;" parent="1" vertex="1">
                    <mxGeometry x="-790" y="1470" width="440" height="50" as="geometry"/>
                </mxCell>
                <mxCell id="74" style="edgeStyle=none;sketch=1;hachureGap=4;jiggle=2;curveFitting=1;html=1;fontFamily=Architects Daughter;fontSource=https%3A%2F%2Ffonts.googleapis.com%2Fcss%3Ffamily%3DArchitects%2BDaughter;fontSize=16;fontColor=#FFFFFF;" parent="1" source="71" edge="1">
                    <mxGeometry relative="1" as="geometry">
                        <mxPoint x="-410" y="1840" as="targetPoint"/>
                    </mxGeometry>
                </mxCell>
                <mxCell id="71" value="&lt;meta charset=&quot;utf-8&quot;&gt;&lt;div style=&quot;color: rgb(197, 200, 198); background-color: rgb(30, 30, 30); font-family: Menlo, Monaco, &amp;quot;Courier New&amp;quot;, monospace; font-weight: normal; font-size: 15px; line-height: 23px;&quot;&gt;&lt;div&gt;&lt;span style=&quot;color: #9872a2;&quot;&gt;async&lt;/span&gt;&lt;span style=&quot;color: #c5c8c6;&quot;&gt; &lt;/span&gt;&lt;span style=&quot;color: #9872a2;&quot;&gt;function&lt;/span&gt;&lt;span style=&quot;color: #c5c8c6;&quot;&gt; &lt;/span&gt;&lt;span style=&quot;color: #ce6700;&quot;&gt;randoWord&lt;/span&gt;&lt;span style=&quot;color: #c5c8c6;&quot;&gt;()&lt;/span&gt;&lt;/div&gt;&lt;/div&gt;" style="text;whiteSpace=wrap;html=1;fontSize=20;fontFamily=Architects Daughter;fontColor=#FFFFFF;" parent="1" vertex="1">
                    <mxGeometry x="-450" y="1630" width="270" height="50" as="geometry"/>
                </mxCell>
                <mxCell id="72" value="&lt;meta charset=&quot;utf-8&quot;&gt;&lt;div style=&quot;color: rgb(197, 200, 198); background-color: rgb(30, 30, 30); font-family: Menlo, Monaco, &amp;quot;Courier New&amp;quot;, monospace; font-weight: normal; font-size: 15px; line-height: 23px;&quot;&gt;&lt;div&gt;&lt;span style=&quot;color: #9872a2;&quot;&gt;async&lt;/span&gt;&lt;span style=&quot;color: #c5c8c6;&quot;&gt; &lt;/span&gt;&lt;span style=&quot;color: #9872a2;&quot;&gt;function&lt;/span&gt;&lt;span style=&quot;color: #c5c8c6;&quot;&gt; &lt;/span&gt;&lt;span style=&quot;color: #ce6700;&quot;&gt;dictionaryApi&lt;/span&gt;&lt;span style=&quot;color: #c5c8c6;&quot;&gt;(&lt;/span&gt;&lt;span style=&quot;color: #6089b4;&quot;&gt;randomWord&lt;/span&gt;&lt;span style=&quot;color: #c5c8c6;&quot;&gt;)&lt;/span&gt;&lt;/div&gt;&lt;/div&gt;" style="text;whiteSpace=wrap;html=1;fontSize=20;fontFamily=Architects Daughter;fontColor=#FFFFFF;" parent="1" vertex="1">
                    <mxGeometry x="-590" y="1850" width="390" height="50" as="geometry"/>
                </mxCell>
                <mxCell id="79" style="edgeStyle=none;sketch=1;hachureGap=4;jiggle=2;curveFitting=1;html=1;entryX=0.5;entryY=0;entryDx=0;entryDy=0;fontFamily=Architects Daughter;fontSource=https%3A%2F%2Ffonts.googleapis.com%2Fcss%3Ffamily%3DArchitects%2BDaughter;fontSize=16;fontColor=#CC0000;" parent="1" source="76" target="78" edge="1">
                    <mxGeometry relative="1" as="geometry"/>
                </mxCell>
                <mxCell id="76" value="Intro screen" style="whiteSpace=wrap;html=1;sketch=1;hachureGap=4;jiggle=2;curveFitting=1;fontFamily=Architects Daughter;fontSource=https%3A%2F%2Ffonts.googleapis.com%2Fcss%3Ffamily%3DArchitects%2BDaughter;fontSize=20;fontColor=#CC0000;" parent="1" vertex="1">
                    <mxGeometry x="-503" y="-290" width="180" height="60" as="geometry"/>
                </mxCell>
                <mxCell id="84" style="edgeStyle=none;sketch=1;hachureGap=4;jiggle=2;curveFitting=1;html=1;entryX=0.5;entryY=0;entryDx=0;entryDy=0;fontFamily=Architects Daughter;fontSource=https%3A%2F%2Ffonts.googleapis.com%2Fcss%3Ffamily%3DArchitects%2BDaughter;fontSize=16;fontColor=#CC0000;" parent="1" source="78" target="81" edge="1">
                    <mxGeometry relative="1" as="geometry"/>
                </mxCell>
                <mxCell id="78" value="press start" style="whiteSpace=wrap;html=1;sketch=1;hachureGap=4;jiggle=2;curveFitting=1;fontFamily=Architects Daughter;fontSource=https%3A%2F%2Ffonts.googleapis.com%2Fcss%3Ffamily%3DArchitects%2BDaughter;fontSize=20;fontColor=#CC0000;" parent="1" vertex="1">
                    <mxGeometry x="-475" y="-120" width="120" height="60" as="geometry"/>
                </mxCell>
                <mxCell id="85" style="edgeStyle=none;sketch=1;hachureGap=4;jiggle=2;curveFitting=1;html=1;entryX=0.5;entryY=0;entryDx=0;entryDy=0;fontFamily=Architects Daughter;fontSource=https%3A%2F%2Ffonts.googleapis.com%2Fcss%3Ffamily%3DArchitects%2BDaughter;fontSize=16;fontColor=#CC0000;" parent="1" source="81" target="13" edge="1">
                    <mxGeometry relative="1" as="geometry"/>
                </mxCell>
                <mxCell id="81" value="select difficulty" style="whiteSpace=wrap;html=1;sketch=1;hachureGap=4;jiggle=2;curveFitting=1;fontFamily=Architects Daughter;fontSource=https%3A%2F%2Ffonts.googleapis.com%2Fcss%3Ffamily%3DArchitects%2BDaughter;fontSize=20;fontColor=#CC0000;" parent="1" vertex="1">
                    <mxGeometry x="-485" y="-30" width="120" height="60" as="geometry"/>
                </mxCell>
                <mxCell id="87" value="score counter" style="whiteSpace=wrap;html=1;sketch=1;hachureGap=4;jiggle=2;curveFitting=1;fontFamily=Architects Daughter;fontSource=https%3A%2F%2Ffonts.googleapis.com%2Fcss%3Ffamily%3DArchitects%2BDaughter;fontSize=20;fontColor=#CC0000;" parent="1" vertex="1">
                    <mxGeometry x="-270" y="50" width="120" height="60" as="geometry"/>
                </mxCell>
                <mxCell id="88" value="&lt;font style=&quot;font-size: 36px;&quot;&gt;MVP 2 - Backend Incorporporation&amp;nbsp;&lt;/font&gt;" style="text;html=1;align=center;verticalAlign=middle;resizable=0;points=[];autosize=1;strokeColor=none;fillColor=none;fontSize=20;fontFamily=Architects Daughter;sketch=1;hachureGap=4;jiggle=2;curveFitting=1;fontSource=https%3A%2F%2Ffonts.googleapis.com%2Fcss%3Ffamily%3DArchitects%2BDaughter;" parent="1" vertex="1">
                    <mxGeometry x="895" y="1200" width="630" height="60" as="geometry"/>
                </mxCell>
                <mxCell id="89" value="&lt;font color=&quot;#f01120&quot;&gt;Frontend&lt;/font&gt;" style="whiteSpace=wrap;html=1;sketch=1;hachureGap=4;jiggle=2;curveFitting=1;fontFamily=Architects Daughter;fontSource=https%3A%2F%2Ffonts.googleapis.com%2Fcss%3Ffamily%3DArchitects%2BDaughter;fontSize=36;" parent="1" vertex="1">
                    <mxGeometry x="870" y="1300" width="730" height="390" as="geometry"/>
                </mxCell>
                <mxCell id="91" value="&lt;font color=&quot;#3399ff&quot;&gt;Backend&lt;/font&gt;" style="whiteSpace=wrap;html=1;sketch=1;hachureGap=4;jiggle=2;curveFitting=1;fontFamily=Architects Daughter;fontSource=https%3A%2F%2Ffonts.googleapis.com%2Fcss%3Ffamily%3DArchitects%2BDaughter;fontSize=36;" parent="1" vertex="1">
                    <mxGeometry x="870" y="1754" width="730" height="390" as="geometry"/>
                </mxCell>
                <mxCell id="105" style="edgeStyle=none;sketch=1;hachureGap=4;jiggle=2;curveFitting=1;html=1;fontFamily=Architects Daughter;fontSource=https%3A%2F%2Ffonts.googleapis.com%2Fcss%3Ffamily%3DArchitects%2BDaughter;fontSize=20;fontColor=#B266FF;" parent="1" source="89" target="93" edge="1">
                    <mxGeometry relative="1" as="geometry"/>
                </mxCell>
                <mxCell id="92" value="&lt;font style=&quot;font-size: 20px;&quot;&gt;make reqs to my express server endpoints&lt;br&gt;&lt;span style=&quot;color: rgb(248, 248, 242); font-family: ui-monospace, SFMono-Regular, Menlo, Monaco, Consolas, &amp;quot;Liberation Mono&amp;quot;, &amp;quot;Courier New&amp;quot;, monospace; font-size: 16px; text-align: left; background-color: rgb(43, 43, 43);&quot;&gt;&lt;br&gt;&lt;/span&gt;&lt;br&gt;&lt;/font&gt;" style="text;html=1;align=center;verticalAlign=middle;resizable=0;points=[];autosize=1;strokeColor=none;fillColor=none;fontSize=36;fontFamily=Architects Daughter;sketch=1;hachureGap=4;jiggle=2;curveFitting=1;fontSource=https%3A%2F%2Ffonts.googleapis.com%2Fcss%3Ffamily%3DArchitects%2BDaughter;" parent="1" vertex="1">
                    <mxGeometry x="1050" y="1540" width="430" height="140" as="geometry"/>
                </mxCell>
                <mxCell id="107" style="edgeStyle=none;sketch=1;hachureGap=4;jiggle=2;curveFitting=1;html=1;entryX=0.25;entryY=0;entryDx=0;entryDy=0;fontFamily=Architects Daughter;fontSource=https%3A%2F%2Ffonts.googleapis.com%2Fcss%3Ffamily%3DArchitects%2BDaughter;fontSize=20;fontColor=#B266FF;" parent="1" source="93" target="95" edge="1">
                    <mxGeometry relative="1" as="geometry"/>
                </mxCell>
                <mxCell id="93" value="&lt;span style=&quot;color: rgb(248, 248, 242); font-family: ui-monospace, SFMono-Regular, Menlo, Monaco, Consolas, &amp;quot;Liberation Mono&amp;quot;, &amp;quot;Courier New&amp;quot;, monospace; font-size: 16px; text-align: left; background-color: rgb(43, 43, 43);&quot;&gt;/random-word&lt;br&gt;&lt;/span&gt;&lt;span style=&quot;color: rgb(248, 248, 242); font-family: ui-monospace, SFMono-Regular, Menlo, Monaco, Consolas, &amp;quot;Liberation Mono&amp;quot;, &amp;quot;Courier New&amp;quot;, monospace; font-size: 16px; text-align: left; background-color: rgb(43, 43, 43);&quot;&gt;/dictionary-entry/:word&lt;/span&gt;" style="text;html=1;align=center;verticalAlign=middle;resizable=0;points=[];autosize=1;strokeColor=none;fillColor=none;fontSize=20;fontFamily=Architects Daughter;fontColor=#3399FF;sketch=1;hachureGap=4;jiggle=2;curveFitting=1;fontSource=https%3A%2F%2Ffonts.googleapis.com%2Fcss%3Ffamily%3DArchitects%2BDaughter;" parent="1" vertex="1">
                    <mxGeometry x="920" y="1845" width="250" height="60" as="geometry"/>
                </mxCell>
                <mxCell id="94" value="&lt;span style=&quot;color: rgb(248, 248, 242); font-family: ui-monospace, SFMono-Regular, Menlo, Monaco, Consolas, &amp;quot;Liberation Mono&amp;quot;, &amp;quot;Courier New&amp;quot;, monospace; font-size: 16px; text-align: left; background-color: rgb(43, 43, 43);&quot;&gt;http://localhost:3001/random-word&lt;/span&gt;" style="text;html=1;align=center;verticalAlign=middle;resizable=0;points=[];autosize=1;strokeColor=none;fillColor=none;fontSize=20;fontFamily=Architects Daughter;fontColor=#3399FF;sketch=1;hachureGap=4;jiggle=2;curveFitting=1;fontSource=https%3A%2F%2Ffonts.googleapis.com%2Fcss%3Ffamily%3DArchitects%2BDaughter;" parent="1" vertex="1">
                    <mxGeometry x="1080" y="1600" width="340" height="40" as="geometry"/>
                </mxCell>
                <mxCell id="98" style="edgeStyle=none;sketch=1;hachureGap=4;jiggle=2;curveFitting=1;html=1;fontFamily=Architects Daughter;fontSource=https%3A%2F%2Ffonts.googleapis.com%2Fcss%3Ffamily%3DArchitects%2BDaughter;fontSize=20;fontColor=#FF0080;entryX=0.267;entryY=0.75;entryDx=0;entryDy=0;entryPerimeter=0;" parent="1" source="95" target="101" edge="1">
                    <mxGeometry relative="1" as="geometry">
                        <mxPoint x="1140" y="2150" as="targetPoint"/>
                    </mxGeometry>
                </mxCell>
                <mxCell id="95" value="&lt;font color=&quot;#00ff00&quot;&gt;Random word API&lt;/font&gt;" style="whiteSpace=wrap;html=1;sketch=1;hachureGap=4;jiggle=2;curveFitting=1;fontFamily=Architects Daughter;fontSource=https%3A%2F%2Ffonts.googleapis.com%2Fcss%3Ffamily%3DArchitects%2BDaughter;fontSize=20;fontColor=#3399FF;" parent="1" vertex="1">
                    <mxGeometry x="870" y="2260" width="270" height="60" as="geometry"/>
                </mxCell>
                <mxCell id="100" style="edgeStyle=none;sketch=1;hachureGap=4;jiggle=2;curveFitting=1;html=1;exitX=0.5;exitY=0;exitDx=0;exitDy=0;fontFamily=Architects Daughter;fontSource=https%3A%2F%2Ffonts.googleapis.com%2Fcss%3Ffamily%3DArchitects%2BDaughter;fontSize=20;fontColor=#FF0080;" parent="1" source="96" target="103" edge="1">
                    <mxGeometry relative="1" as="geometry"/>
                </mxCell>
                <mxCell id="96" value="&lt;font color=&quot;#ff0080&quot;&gt;Dictionary API&lt;/font&gt;" style="whiteSpace=wrap;html=1;sketch=1;hachureGap=4;jiggle=2;curveFitting=1;fontFamily=Architects Daughter;fontSource=https%3A%2F%2Ffonts.googleapis.com%2Fcss%3Ffamily%3DArchitects%2BDaughter;fontSize=20;fontColor=#3399FF;" parent="1" vertex="1">
                    <mxGeometry x="1270" y="2260" width="270" height="60" as="geometry"/>
                </mxCell>
                <mxCell id="102" style="edgeStyle=none;sketch=1;hachureGap=4;jiggle=2;curveFitting=1;html=1;entryX=0.25;entryY=0;entryDx=0;entryDy=0;fontFamily=Architects Daughter;fontSource=https%3A%2F%2Ffonts.googleapis.com%2Fcss%3Ffamily%3DArchitects%2BDaughter;fontSize=20;fontColor=#B266FF;" parent="1" source="101" target="96" edge="1">
                    <mxGeometry relative="1" as="geometry"/>
                </mxCell>
                <mxCell id="101" value="&lt;font color=&quot;#b266ff&quot;&gt;Random word&lt;/font&gt;" style="text;html=1;align=center;verticalAlign=middle;resizable=0;points=[];autosize=1;strokeColor=none;fillColor=none;fontSize=20;fontFamily=Architects Daughter;fontColor=#FF0080;sketch=1;hachureGap=4;jiggle=2;curveFitting=1;fontSource=https%3A%2F%2Ffonts.googleapis.com%2Fcss%3Ffamily%3DArchitects%2BDaughter;" parent="1" vertex="1">
                    <mxGeometry x="1150" y="2060" width="150" height="40" as="geometry"/>
                </mxCell>
                <mxCell id="104" style="edgeStyle=none;sketch=1;hachureGap=4;jiggle=2;curveFitting=1;html=1;entryX=0.75;entryY=1;entryDx=0;entryDy=0;fontFamily=Architects Daughter;fontSource=https%3A%2F%2Ffonts.googleapis.com%2Fcss%3Ffamily%3DArchitects%2BDaughter;fontSize=20;fontColor=#B266FF;" parent="1" source="103" target="89" edge="1">
                    <mxGeometry relative="1" as="geometry"/>
                </mxCell>
                <mxCell id="103" value="Phonetic&lt;br&gt;Dictionary Word" style="text;html=1;align=center;verticalAlign=middle;resizable=0;points=[];autosize=1;strokeColor=none;fillColor=none;fontSize=20;fontFamily=Architects Daughter;fontColor=#B266FF;sketch=1;hachureGap=4;jiggle=2;curveFitting=1;fontSource=https%3A%2F%2Ffonts.googleapis.com%2Fcss%3Ffamily%3DArchitects%2BDaughter;" parent="1" vertex="1">
                    <mxGeometry x="1400" y="1790" width="180" height="60" as="geometry"/>
                </mxCell>
                <mxCell id="135" value="" style="shape=image;verticalLabelPosition=bottom;labelBackgroundColor=default;verticalAlign=top;aspect=fixed;imageAspect=0;image=data:image/png,iVBORw0KGgoAAAANSUhEUgAAAgcAAAIPCAYAAADn8n1WAAABXWlDQ1BJQ0MgUHJvZmlsZQAAKJFtkE9LQlEQxY9pCCZUIK1cuAvBQl8uglZmUYGUaNGf3fNpGujr+nwRQYuWfQBp36ZatCuwRUT0CYLIIAhahftAgpLXuVqp1R2G+XGYGeYeoMetCpF3ACjoppGYmfStrK75nDXYGS74Ma5qJRGJx2NswXftfvUqbLLejchd3sHD/eOz2sX56dPEm6d8/7e/67nSmZLG+sFUNGGYgC1Ijm+bQvIe2WPwKHJZcrbFJ5JTLb5s9iwmouRb8oCWU9PkZ3Ig1aFnO7iQ39K+bpDXuzP6UpJ1iOnFFKYRY/iQhIIwM4RZevT/TLg5E8UmBHZgYANZ5GByOkJFII8MeQ46NIwiQFYQlHul1789bGvqLhBaJry0NX0euFoA+qttbdjN79CHm6JQDfXHWVvdUVofU1rcVwF6DyzrlfucfqDxYFnvFctqHAH2R+C6/gkgI2SKDqKzYQAAAFZlWElmTU0AKgAAAAgAAYdpAAQAAAABAAAAGgAAAAAAA5KGAAcAAAASAAAARKACAAQAAAABAAACB6ADAAQAAAABAAACDwAAAABBU0NJSQAAAFNjcmVlbnNob3QkY0exAAAB1mlUWHRYTUw6Y29tLmFkb2JlLnhtcAAAAAAAPHg6eG1wbWV0YSB4bWxuczp4PSJhZG9iZTpuczptZXRhLyIgeDp4bXB0az0iWE1QIENvcmUgNi4wLjAiPgogICA8cmRmOlJERiB4bWxuczpyZGY9Imh0dHA6Ly93d3cudzMub3JnLzE5OTkvMDIvMjItcmRmLXN5bnRheC1ucyMiPgogICAgICA8cmRmOkRlc2NyaXB0aW9uIHJkZjphYm91dD0iIgogICAgICAgICAgICB4bWxuczpleGlmPSJodHRwOi8vbnMuYWRvYmUuY29tL2V4aWYvMS4wLyI+CiAgICAgICAgIDxleGlmOlBpeGVsWURpbWVuc2lvbj41Mjc8L2V4aWY6UGl4ZWxZRGltZW5zaW9uPgogICAgICAgICA8ZXhpZjpQaXhlbFhEaW1lbnNpb24+NTE5PC9leGlmOlBpeGVsWERpbWVuc2lvbj4KICAgICAgICAgPGV4aWY6VXNlckNvbW1lbnQ+U2NyZWVuc2hvdDwvZXhpZjpVc2VyQ29tbWVudD4KICAgICAgPC9yZGY6RGVzY3JpcHRpb24+CiAgIDwvcmRmOlJERj4KPC94OnhtcG1ldGE+Cm4RzwcAAEAASURBVHgB7d0HnNRE/8fx33FHE+yo2LGLHbuoKNh7xYpYsIsFFbtiF3t/7OVRsQv2XihW7Ir9L3bBAupDh4P75zswMTn27rJ3R26z+5nX69j0mbwTdn6ZTLJlY8eOrTISAggggAACCCAwS6AZEggggAACCCCAQFSA4CCqwTACCCCAAAIIGMEBJwECCCCAAAIIxAQIDmIcjCCAAAIIIIAAwQHnAAIIIIAAAgjEBAgOYhyMIIAAAggggADBAecAAggggAACCMQECA5iHIwggAACCCCAAMEB5wACCCCAAAIIxAQIDmIcjCCAAAIIIIAAwQHnAAIIIIAAAgjEBAgOYhyMIIAAAggggADBAecAAggggAACCMQECA5iHIwggAACCCCAAMEB5wACCCCAAAIIxAQIDmIcjCCAAAIIIIAAwQHnAAIIIIAAAgjEBAgOYhyMIIAAAggggADBAecAAggggAACCMQECA5iHIwggAACCCCAAMEB5wACCCCAAAIIxAQIDmIcjCCAAAIIIIAAwQHnAAIIIIAAAgjEBAgOYhyMIIAAAggggADBAecAAggggAACCMQECA5iHIwggAACCCCAAMEB5wACCCCAAAIIxAQIDmIcjCCAAAIIIIAAwQHnAAIIIIAAAgjEBAgOYhyMIIAAAggggADBAecAAggggAACCMQECA5iHIwggAACCCCAAMEB5wACCCCAAAIIxAQIDmIcjCCAAAIIIIAAwQHnAAIIIIAAAgjEBAgOYhyMIIAAAggggADBAecAAggggAACCMQECA5iHIwggAACCCCAAMEB5wACCCCAAAIIxAQIDmIcjCCAAAIIIIAAwQHnAAIIIIAAAgjEBAgOYhyMIIAAAggggADBAecAAggggAACCMQECA5iHIwggAACCCCAAMEB5wACCCCAAAIIxAQIDmIcjCCAAAIIIIAAwQHnAAIIIIAAAgjEBAgOYhyMIIAAAggggADBAecAAggggAACCMQECA5iHIwggAACCCCAAMEB5wACCCCAAAIIxAQIDmIcjCCAAAIIIIAAwQHnAAIIIIAAAgjEBAgOYhyMIIAAAggggADBAecAAggggAACCMQECA5iHIwggAACCCCAAMEB5wACCCCAAAIIxAQIDmIcjCCAAAIIIIAAwQHnAAIIIIAAAgjEBAgOYhyMIIAAAggggADBAecAAggggAACCMQECA5iHIwggAACCCCAAMEB5wACCCCAAAIIxAQIDmIcjCCAAAIIIIAAwQHnAAIIIIAAAgjEBAgOYhyMIIAAAggggADBAecAAggggAACCMQECA5iHIwggAACCCCAAMEB5wACCCCAAAIIxAQIDmIcjCCAAAIIIIAAwQHnAAIIIIAAAgjEBAgOYhyMIIAAAggggADBAecAAggggAACCMQECA5iHIwggAACCCCAAMEB5wACCCCAAAIIxAQIDmIcjCCAAAIIIIAAwQHnAAIIIIAAAgjEBAgOYhyMIIAAAggggADBAecAAggggAACCMQECA5iHIwggAACCCCAAMEB5wACCCCAAAIIxAQIDmIcjCCAAAIIIIAAwQHnAAIIIIAAAgjEBAgOYhyMIIAAAggggADBAecAAggggAACCMQECA5iHIwggAACCCCAAMEB5wACCCCAAAIIxAQIDmIcjCCAAAIIIIAAwQHnAAIIIIAAAgjEBAgOYhyMIIAAAggggADBAecAAggggAACCMQECA5iHIwggAACCCCAAMEB5wACCCCAAAIIxAQIDmIcjCCAAAIIIIAAwQHnAAIIIIAAAgjEBAgOYhyMIIAAAggggADBAecAAggggAACCMQECA5iHIwggAACCCCAAMEB5wACCCCAAAIIxAQIDmIcjCCAAAIIIIAAwQHnAAIIIIAAAgjEBAgOYhyMIIAAAggggADBAecAAggggAACCMQECA5iHIwggAACCCCAAMEB5wACCCCAAAIIxAQIDmIcjCCAAAIIIIAAwQHnAAIIIIAAAgjEBAgOYhyMIIAAAggggADBAecAAggggAACCMQECA5iHIwggAACCCCAAMEB5wACCCCAAAIIxAQIDmIcjCCAAAIIIIAAwQHnAAIIIIAAAgjEBAgOYhyMIIAAAggggADBAecAAggggAACCMQECA5iHIwggAACCCCAAMEB5wACCCCAAAIIxAQIDmIcjCCAAAIIIIAAwQHnAAIIIIAAAgjEBAgOYhyMIIAAAggggADBAecAAggggAACCMQECA5iHIwggAACCCCAAMEB5wACCCCAAAIIxAQIDmIcjCCAAAIIIIAAwQHnAAIIIIAAAgjEBAgOYhyMIIAAAggggADBAecAAggggAACCMQECA5iHIwggAACCCCAAMEB5wACCCCAAAIIxAQIDmIcjCCAAAIIIIAAwQHnAAIIIIAAAgjEBAgOYhyMIIAAAggggADBAecAAggggAACCMQECA5iHIwggAACCCCAAMEB5wACCCCAAAIIxAQIDmIcjCCAAAIIIIAAwQHnAAIIIIAAAgjEBAgOYhyMIIAAAggggADBAecAAggggAACCMQECA5iHIwggAACCCCAAMEB5wACCCCAAAIIxAQIDmIcjCCAAAIIIIAAwQHnAAIIIIAAAgjEBAgOYhyMIIAAAggggADBAecAAggggAACCMQECA5iHIwggAACCCCAAMEB5wACCCCAAAIIxAQIDmIcjCCAAAIIIIAAwQHnAAIIIIAAAgjEBAgOYhyMIIAAAggggADBAecAAggggAACCMQECA5iHIwggAACCCCAAMEB5wACCCCAAAIIxAQIDmIcjCCAAAIIIIAAwQHnAAIIIIAAAgjEBAgOYhyMIIAAAggggADBAecAAggggAACCMQECA5iHIwggAACCCCAAMEB5wACCCCAAAIIxAQIDmIcjCCAAAIIIIAAwQHnAAIIIIAAAgjEBAgOYhyMIIAAAggggADBAecAAggggAACCMQECA5iHIwggAACCCCAAMEB5wACCCCAAAIIxAQIDmIcjCCAAAIIIIAAwQHnAAIIIIAAAgjEBAgOYhyMIIAAAggggADBAecAAggggAACCMQECA5iHIwggAACCCCAAMEB5wACCCCAAAIIxAQIDmIcjCCAAAIIIIAAwQHnAAIIIIAAAgjEBCpiY4wgUAICLVq0MP2Vl5dbs2bExyVwyBPv4owZM2z69Ok2depU95d4RRZEoMgECA6K7ICyOzULKCBo3bo1AUHNRCU/R8Gi/po3b+7OlUmTJhEklPxZUZoABAeledxLbq/nmmsua9myZcntNztcfwEFCW3atLGKigqbOHFi/TfEmghkUIA21QweNIqcnwCBQX5eLB0XUFCpc4iEQCkJ0HJQSke7BPdVtxJoMUj3wH/44Uf2888/u0y322674Mq7PN0CzIHcdA5VVlZyi2EO2LLJwhQgOCjM40KpGklAfQxI6Qrcf/8D9tDDD7tMv/j8syA4KI6rbp1L6qhIQqAUBLitUApHuUT3Ua0GPI1Qogd/Duy2ziWdUyQESkGA4KAUjnKJ7iNf5CV64OfgbnNOzUFcNl1QAgQHBXU4KExjCug9BiQEGlOAc6oxNdlWIQsQHBTy0aFsDRJoyC2FysrpQQe06Q3KP5+VlZdewNOQpA5zdaVp06bVtUiN86uqqqwh69e04SlTptQ0q+CmN+ScKridoUAI1CJAh8RacJhVWgLffPON3XHHnfba4ME2atRot/OLLtretthiCzugRw/r2HHlEGTy5Ml22eVXuLfpNa9obied1Me9NCdcYNbAG2+8YS++9LIbW3zxxezwww4LF3nzzTdt6LDXbfjwd+29995z05XHaqutZkcffZQtt+yy4bJ+4JlnnrXh775rrVq1stNPO9U+++wzGzToCXv5lZdt5MjvbP3117MtunWz3XffzRZZZBG32tdff23PPPucDRk8xD748ENrGzy732ntTnbUkUfaJpts7DftPn/9dZTdcuutbnifvfe25ZZb1gY9/ri99eZbNmToMBszZozJpMumXeyQQw6OmcQ2VMuIgoEnn3zKBgy431S28RMmuDKt3LGj7b13d9t5p51yWtaySWYhgEAjC5SNHTu2qpG3yeYQKAiB+eefP3E5Xn31VTvo4F61Ln/fvfdYly6bhsucdtrpdv8DD7rxQw/tZeecfVY4TwNjx/4VVL6buspP4/cPuM9VxroCv+76G+zKK6/S5BrTaaee4oKE6AJ9+57qngRQBX/77bfaPvvuH50dDivIGPjYY/bll1/YbrvvGU6vPnD++efZQQf2DCcrSNl9j+5u/Ibrr7PHHhvogqVwgWoDd915RxA8dYtN9WXURD2t0KbNv08rKDDYv8cBLiCKrRQZ2XTTTUzbLdT7+3/99VektAwiUJwCBAfFeVzZq0AgaXDw6aef2g477hyade7c2TbYYH13lTw4uNr+8ccfw3lPPvG4rbXWmm5cV7zbbrt9OP/BBwaY1vXp6GN629NPP+NGjzzicDvjjNPd8BlnnmX33TfAL2aqDNdbbz0rKyuzIUOGhq0IWsAHFH7haMXrpy277DKm9wmo4n0wCFZULqU111zDPv74EzesYGKHHXawxYLWCwVCfrpmvv/ecFtooYXcctHgwE2Y9c9SSy1lW221pY0fN96eeeaZMA/NHjTwUVtnnXXCxaNljAYHum1ywgkn2uNPPOGWVZn23HMPW2DBBe3DDz6MBSE77riDXX/dte73L8INF8gAwUGBHAiKMUcFCA7mKC8bb0qBJMGBmtF32HEnFwiorDff/B/bPqhoo+mRRx61k07u6yapQhs2bIgtGFRoSmqm33XX3d2wpg1+7RWbd9557dmgGf/Io45203UVr6DCv4xJty2OObq3mzcgaE3o1GktN+z/0XsCTjv9DDe6wgor2Csvv+hnWbTi1cTjjzs2uKVxYjh/9OjR1q1bUInPChA0Q/kPGvhY+JY//bDQSSedbAMHPe7WU4uHWj6UcgUHakHYeeed3Hz9o0r+0ssut5tuutlNk8nzzz9rCiCUomWMBgdXXHGlazHRMptt1sWuveYaW2CBf1t3/vnnH9tr733siy++1CLWp88J1ueE491wIf1DcFBIR4OyzCkBOiTOKVm2mwmB+wYMCAODc/udM1tgoJ3o3n1PO+H449z+qNLVfX+f1u7UyVViGtf9+H7nnuc+T54VTGj6jTdcHwYGGu+6+eb2StBHQBVq9cBA8/fbb9/gKn97DZr6QejHf3IlVbAnVKs827dvb716HRIuror7zqCJPvr6X/W4P/74fyvd777/Ply++sCFF5wfCww0X53ydMtDLkoy8bdX3IQc/6ji160UJfVZUMARDQw0XUGVbt2ozEq33Xpbqp1CXab8gwACToDggBOhpAUeC+7LK6lCUqVcU9ptt93CWa++Njgc1sCxvY9xTfgaHjhwkG251TbhlfvFF11oyy+/vGbFkipIXWl/O3Kk6daFKld10nv33ffsjz/+sE032SRc/vvvfwiHowPd99wzZ7N7NL/OG3e2xRdbLLqaG15qqSXDaT//NPNVx+GEWQMqX8+eB1Sf7MZ1C+TMM2a2bmjCoEGDci7nJ7762mt+0A4++GAXCIQTIgO6vbH1Nlu7KQo61OGShAAC6QvwtEL65uRYIAJ64sA/laCKaMWVOiYq2U8//RRbTr/ad92119pmm3d109WCoLTlllvY/vvv54ar/6OnGK686ppY/4LoMv62haapnLnSGmuskWtyeMtDM9WykSup9UB5qKyV03M/Atl5o41yrRpO05W/+jvoKQk5qs+Dv3USLjRr4Pvvvg8nXXzxJaa/JOm3335LshjLIIBAIwvQctDIoGwuOwK+Es+3xMETPrOtsswyHeyoo46MTb8geBJAV9jVk1oX9t2vRywwUEuC/nxKUjbfidCvk+szyTK51tO0NdZYvaZZ4fS11vq3v8SYMbO7+AXrW8nrdgQJAQTSF6DlIH1zciwQgeh9eHXaizaT11bEVq1azTZbjy0+/PAjsel33HnXbI83jhs3zk7o828HQnUoPOywQ22eeeZx6+pFRm8G7xTof+llNmLEiNj20h75ddSoOrMcFXTo9Cn6yKKf5j/btG3rB+3MM8+wjiv/+86IcEaOgZVWWjHHVCYhgMCcFiA4mNPCbL9gBeabb76wbOohv9FGG1rz5s3DafkMnHnWWWHHRr/e7bffYd26do29aGhY8NIjn/SSoeiTBpquWxR6l8LzL7zQ5MHB8OHDfVFzfuptiW+9/XY4Tx0Ka0qLLbpoOKtZ0JoSfV9EOIMBBBAoGAFuKxTMoaAgaQuoyX/rrbcKs33nnZorQz0xcM2117kOhOEKswb0SKB/gmHddde1Z55+Mlzk2OOOt+ijb9HhDYNgJFfSq5RfeeWVXLNSnaY3N9bUGVIFeTlSxqhjrkJuuOEG4eTnnn/B9CKompI6aOrx0Tnxquaa8mQ6AgjEBQgO4h6MlZjAvvvsE+7x4YcfkfNqXZX1Mb2Ptauuutq6dt0i9tjeL7/8YmcFLzXy6corLrfVV1/dTj75JDdJfQf00iOfVl11VT9o77//fjjsB5TXccFjhr6jpJ/eVJ97Bz65+gvo/Q5HHHFUWCy1gtSWtN96LbSS3qVwevAeB71voXpSgNbzwIPceyW6Bu9rqOkxzurrMY4AAo0rwG2FxvVkaxkT0Kt/ewePIt5ww43u8cO99trHjj22t20QXOmqmfz99963J558Mnjx0czbAXrroH8hkCq3E088OXxsUe9JWGaZDk7g6KBz4vPBFbL6DahVQa8h3mOP3V0Fqccm9XTEvffe566gdwzeaaCXHb3/wQf2wP0Pxt4U6DbWhP8oSNljz73swOCRxk2CxysnTpxgQ4PfWLjtttvDUqnPhJ7MqCvdErxgaudddnO3X/To5ujffrc9gt+AUMfHX3791d5+6+3gldB3hJs5pe/J/MZCqMEAAukKEByk601uBSjQN7jKHx90FLz7v/e4SvuS/pfmLKWe+7/7rrvCl/TcGXQ49PfcdTvhwMhvFKjvwNVXXWlbbb2N21afE08KXpG8rnu3wUUXXxi8hKiPm67XKEdfpewz1g8n6amGpkx6tfGjjz7mXg99wYUX5SyKynnmrNdC51wgMnHJJZe0hx96wHYJAgQFR3qNs/5yJf3mgw/Ccs1nGgIIzFkBbivMWV+2ngEB9T3oF1z1n3hin7Dir15svbHwoQfvD94NsICbpSvdaIV51ZVXzPZCIvW0P/3008JNnXnW2W54t113db+ZEH2XgV9I7w14KKhAd95pRz8p+AGifztJlleUh9PLy3P/9412qqzpvQPaSHS74UYjA+sGv5eg/hNqLcmV1GJw+WWXujcmRufXVka1kDzyyEO20Ya5+1vocc7+/S+J/RhUdNsMI4BAOgL8tkI6zuTSBAJJfluherF0j3vEiM/s519+Dpr8zRYO3ti3wgrLhz9/XH35ho4ryPjkk0/c+xA6Be8M8D+z3NDt1nf96G8r6O2OPXrM/NVHvW9AfST+/HOM6aen1X+gtqcTkuSvzo4jR34bdNj8290+WHzxxU19EyoiAVCS7aS9TLRTadp5kx8CaQlwWyEtafLJhEDr1q1d879uAaSR9GrjXK83TiPvfPJQINCtW7d8Vqlz2Q4dljb9kRBAoPAEcrdLFl45KRECCCCAAAIIpCRAcJASNNkggAACCCCQFQGCg6wcKcqJAAIIIIBASgIEBylBkw0CWROo7UmHrO0L5UUAgfwEeFohPy+WzpBAfZ5WyNDuzZGi6sVOU6dOddvWD0zl+lXJOZJxhjbK0woZOlgUtd4CPK1QbzpWRKD4BMrLy3krYfEdVvYIgbwFuK2QNxkrIIAAAgggUNwCBAfFfXzZOwQQQAABBPIWIDjIm4wVEEAAAQQQKG4BgoPiPr7sHQIIIIAAAnkLEBzkTcYKCCCAAAIIFLcAwUFxH1/2DgEEEEAAgbwFCA7yJmOFYhPQLw6+/PIree/W+AkTbOzYv/JeL+0VRo8ebaNGjU47W/JDAIEMCxAcZPjgUfTGEXjhhRfttttuz3tjQ4cOtQceeCDv9dJe4cKLLrZ+/c5NO1vyQwCBDAsQHGT44FH0xhF4bfBg27zr5nlvrFXLlrwwKG81VkAAgSwI8IbELBwlyjjHBCorK23I4CHW+5ij7bfffrOeBx5k11x9tXXsuLJ9++23du2119uw11+35ZZb1rbYYgsb/Npge+ihma0F3bp1C8ul7eyw407heHTg8UEDXRBx55132UMPP2wTJky0nj172LBhr9sRhx9um2yysQ0c9Lg9++yzdvttt7pVD+h5oG291Vb24ksv2fvvvW/rb7CBXX5Zf7vp5ltsULDsmmuuacf2PtrWWWcde+mll+2BBx+01VZd1e69b4Atuuiitvfe3e3Anj2jxWAYAQQQSCxAcJCYigWLUeDjjz92u9WxY0f75Zdf7IsvvrRJkye5CrzXoYdZZeV0O+nEPjZ06DC75JL+1rZNm5wM+g2CQ3v1CueNGzfOzj3vfFu7Uydr0aKFvfrqq2683zln29JLL+2Gf/zxR9t3n33cOp032tAmjB8frj9ixGc2ZMhQ69XrkCB42MQuCm4NbLZZV1s5KOcpp/S1u+++2y6/4ip78IEB9vfff7s+Ex9++JH17XuyjRgxws4+u58t1G4h23777cJtMoAAAggkFSA4SCrFckUpMDS4et8uqECbNYvfYRs6bKiNHPmdPfP0k7b66qtbjx772/Y77GTff/ddTgf9JkH37nu6eQooevU61BZccEG75ZabTPPO6Xee7bzzTq6y10IVFRWulcJvrH379nbAAT38qPvsuvnmpmBC6Z133nEBwE3/ucEWWWQRF6Qc0/tYmzRpkpuvfy6/7FLbcsst3PiXX35lt99xJ8FBqMMAAgjkIxD/RsxnTZZFoAgE1CS/WZcus+2JKle1EqyyyirhvG4J+yVcfvnlpn4Mt992i6vI9SuHaiXotNZa4bY6dfp3OJxYbWDV1VYNp3To0MFWWGEFtz1N9L84OWnS5HCZ9dZbNxzu0mVTe++992zGjBnhNAYQQACBpAIEB0mlWK7oBMaMGeOa4Dt33mi2fZswfoItvMjC7qrfz6xo3twP1vipvgPqF9D/kotdfwAt6FslWgYdGH1q06atH6zxc7755o3Nm7tt7etEt9m+/SJu3RkzqmLbYAQBBBBIIkBwkESJZYpS4I033rTVVlvN2rVrN9v+Lbf8cu62wpgxY8N56ndQW/roo4/thBP62H777ev+/LK6hbDtNtvYhx995CfZN998Ew431sDnn38ebuqLz78IOi2uEdy+KA+nMYAAAggkFSA4SCrFckUnMCR4T8FWs+7RV9+5HYJ+CLqtcNDBB9tTTz1t/c49zzXTV1/Oj//xxx928CG9XD+Dvfbq7lok1DFQf3pZUtduXe2RRx51HRv1VMTVV1/jV3WfeoLhrbffjk3Ld+TKK69yHSrvC55YuOvu/9oee+yR7yZYHgEEEHACdEjkRChJAd2Lf+7Z5+yee+4O919PHPg0zzzz2KOPPWJnnXWOqeOfrsJ19f9ucB8/V9JTDrpNobTrrrvHFtGjj9333MM+/fRT63HAzMcLO3fuHFvmyaeesnvvvc+efeapcHqZ/VseTWwWdGz0yRfVf2p65fRK22bbmU8nHHXUkXbQgTPzalbWLLy14dfnEwEEEKhNoGzs2LHclKxNiHmZFfCd9nLtQFVVlY0MnjxYeqmlcza9q9n/zbfesv323deaz+prcNLJfe3rr7+2p558ItcmE03T0wUTJ050LQyJVkiwkFokVLYff/jOBSgKbHyZE6zOInkK/PVX4b8yO89dYnEEZhOg5WA2EiaUgoBaCZZbdtkad1XBg94V8NmIz23bbbe2T4P3DqgSvviiC2tcJ8mM1q1bz9G3KurxycZI2v9oS4rfpl72pD4UJAQQKG4B+hwU9/Et6b1ryGN8K664ot191x02ddrU4Kr8FBs+fLj173+Je99BoaG2W6idVb9N0dAy5goMRo0aVfKBQUPOqYYeE9ZHIE0BbiukqU1eqQq0DR79o3k9VfKiz2zatGk2PvImy6LfYXawZAVoOSjZQ1/8O66XD5EQaEwBzqnG1GRbhSxAcFDIR4eyNUhAX+Q0AzeIkJUjAjqXCA4iIAwWtQDBQVEfXnYu+tsDaCDQEAHOpYbosW7WBAgOsnbEKG9eArrSmzJlSl7rsDAC1QV0DtFqUF2F8WIWIDgo5qPLvjkBvVeAAIGTob4COnd0DpEQKCUBHlgupaNdwvuqL3c9o6/3DPgfQiphDnY9gYD6GOhWAi0GCbBYpOgECA6K7pCyQzUJ6Etefy1atHB/5cHriAkUatIqzekKCKZPn+7OE4KC0jwH2OuZAgQHnAklJ+CDhJLbcXYYAQQQSChAn4OEUCyGAAIIIIBAqQgQHJTKkWY/EUAAAQQQSChAcJAQisUQQAABBBAoFQGCg1I50uwnAggggAACCQUIDhJCsRgCCCCAAAKlIkBwUCpHmv1EAAEEEEAgoQDBQUIoFkMAAQQQQKBUBAgOSuVIs58IIIAAAggkFCA4SAjFYggggAACCJSKAMFBqRxp9hMBBBBAAIGEAgQHCaFYDAEEEEAAgVIRIDgolSPNfiKAAAIIIJBQgOAgIRSLIYAAAgggUCoCBAelcqTZTwQQQAABBBIKEBwkhGIxBBBAAAEESkWA4KBUjjT7iQACCCCAQEIBgoOEUCyGAAIIIIBAqQgQHJTKkWY/EUAAAQQQSChAcJAQisUQQAABBBAoFQGCg1I50uwnAggggAACCQUIDhJCsRgCCCCAAAKlIkBwUCpHmv1EAAEEEEAgoQDBQUIoFkMAAQQQQKBUBAgOSuVIs58IIIAAAggkFCA4SAjFYggggAACCJSKAMFBqRxp9hMBBBBAAIGEAhUJl8u5WFVVVc7pTEQAAQQQQACB9AXKysoaJdO8g4NoQBAdbpTSsBEEEEAAAQQQaBSBhgQKeQUHPhjQZ4sWLaxVq1ZWUVFhDSlAowiwEQQQQAABBEpYQPVyZWWlTZ482aZOnerqZU2rb/2cODhQJv6vTZs21rp16xI+DOw6AggggAAChSOgIKB58+bub9KkSTZhwoQwMKhPgJCoQ6KCAiV9qsWAwKBwTghKggACCCCAQFRAdbTq6mjdHZ2fZDhRcKAN+VYD3UogIYAAAggggEDhCqiu9vV2fUqZV3AwY8YM12RRn4xYBwEEEEAAAQTSEdAtBtXZvvUg31zrDA585OE/63PvIt9CsTwCCCCAAAII1F9AdbWvt/1nPlurMzjwG6vPxv26fCKAAAIIIIBAugINqbcTBwfaJWVEQgABBBBAAIHCF2hInU1wUPjHlxIigAACCCCQt0BqwUHeJWMFBBBAAAEEEMicQF4tB5nbOwqMAAIIIIAAAnkLEBzkTcYKCCCAAAIIFLcAwUFxH1/2DgEEEEAAgbwFCA7yJmMFBBBAAAEEiluA4KC4jy97hwACCCCAQN4CBAd5k7ECAggggAACxS1AcFDcx5e9QwABBBBAIG8BgoO8yVgBAQQQQACB4hYgOCju48veIYAAAgggkLcAwUHeZKyAAAIIIIBAcQtUFMru/fnnnzZ69GgbP368+w3qQikX5UAAAQRKRaBZs2bWtm1ba9++vbVr165Udpv9zCFQEMHB999/b//73/9siSWWsPnmm890gpIQQAABBNIVmDFjhv3999/2888/uwu1Dh065F2A+z+YYbe8Od3e+aHKplTyS741AbasKLMNli6zIzqX235rF16d1+TBgVoMFBisttpqBAU1nUVMRwABBFIQ0IXZAgss4C7SRowYYfp+zqcF4eQnKu3KwdNTKGn2s1DgNPRb/c2wD34qtyt2afLqOIba5OGKbiWoxYDWgthxYQQBBBBoMgF9H+t7Wd/PSZNaDAgMkmrFl5Ob/AopNXlwoD4GupVAQgABBBAoHAF9L+v7OWnSrQRS/QUKza/JgwPd46LVoP4nFGsigAACc0JA38v6fk6a1MeAVH+BQvNr8uCg/pSsiQACCCBQKAJ0PmzYkSg0P4KDhh1P1kYAAQQQQKDoBAgOiu6QskMIIIAAAgg0TIDgoGF+rI0AAggggEDRCRAcFN0hZYcQQAABBBBomADBQcP8WBsBBBBAAIGiEyA4KLpDyg4hgAACCCDQMIFMBQdvvfWW3X777bPt8Y8//mhXX321ew3zbDMbMGHs2LH2xx9/uC188MEHdscddzRga8lWTSuf6qWZOnWqfffdd26yXplaH8/oNqpvP8vjVVVV9tVXX4W7cOONN9oXX3wRjhf6wOuvv24PP/xwoReT8iEwm0Cr4I3CAw9pbqPOb2ETLm1p35zZws7cqny25WqaoOWPDH67oKHp5K7l9skpLcLN6LcQ5mkVjhblQKaCA/0YyOeffz7bgfjnn3/s//7v/0yVU2Omfv36mX4USklBQhoVQlr5uJ2K/POf//zHhg4d6qZMnz7dFBjl8wIUrRjdRmTTmR988cUX7b///W+4H19++aWNGTMmHC/0gV9//TWVc7fQHShf9gQ+P62F7bpaM/vfZLOhI2fYfK3NLty+wm7fO9nvECzfrsxWXqSswTu+cNsya9dm5mZ2X6OZDTiguWlaMadMBQf5HAgFDGpRmDw5OKuqpcrKSverY/rBp5qS1lPlOGnSJNPyPukqctSoUabtV09Jtqt1Jk6caNrOuHHj7Lfffqu+GTdeWz5aQO88r17+KVOmuLKqclcgNWHChNm2nauMCqpUJn1qGwsttJCddtppsddaqzyqZKZNmzbbNjWh+jaiC+Uqa3S+H/Z5qCwqpz92KlM0X+1f9X3LtV9+u9qOzoXqx0z5/f777/bLL7/EjrFfT5/KS6+Q1fZ1LkSTyilnLVM96ZfttN1c87Ss3weVQUmf2qdoQKbtR8e1TbXq+HW0nsolH5VN83zSMjpemkdCIIsC7dqU2TILltljn8ywlS6eatvdMs0WOmuq/T6+yvZfd2ZrgK7etVw0LTFfmbWsFjsoSNhyxWZWHqnxtJ7WnytoENh25eCnqlvO3ErzYNNbr9Qsto3zX6y0NS+fZs2CrJaef2Z+i887ez7RcmR9uBph1ndnZvnV/K/meZ+6dOlie++9txt988037YEHHgi/dFdeeWU74ogjrEWLf5uMtOD555/vln/ooYfcl26bNm3cF+1ZZ53lftJUM1dZZRU76qij3Oufk25X65166qm2yCKLuCBD49q2pi244IIarTWfIUOG2AsvvBBWdCussIIdeeSR1qpVK3flrkpCwYuvVHbaaSfbdttt3XZrKqP2URWZ/lRZHnDAAXbppZfaeeed536R7d1337V77rkn3ObGG29s++23n9um/6f6Ns4880yrrax+Pf/5zTffmJrrfRCgAEWVev/+/e3aa6+1hRde2A466CC3+GeffWa33HKLXXPNNda8eXOrab90TIcNG2YPPvigz8aWXHJJ69Onj6ucte1oC4C2v95664XLauDDDz+0V1991U07+eST7frrr3fDr7zyijuPNKLXzB5//PG2/PLLu4BPLSgKRvy8ww8/3FZffXU37v+R84UXXujKovXUGnHDDTfYXnvtZZtttplruTn77LPtpJNOcmV97LHH7KeffnKrzzvvvHbsscfaoosuamrVGDx4sAvOZHfIIYeY5mtb3lLjLVvO+ubzBeATgQIX+GdyVRAIm3XuUGYrLlRmX/8xM5DueuM06zCrgv7vfs1tu47NrFXfmUHw/HOZ/dSvhfV5vNKuGTIzaD90w3I7vktQ4wdpWjBp1zum2bNfzLCP+jY33bZYYK4yK5sVX9wwbLodvUm5CwJmBNkd9Uil3frWdLtlr+bWfc1mtvIlU+2qXWdWm4N7N7ejH620m96Y/eKgwGkTFS8SRyVavuAX0pW4AoPDDjvMfUHuvvvurrlcV426gh0wYIBttNFGdsUVV7ig4Ouvv7Znnnlmtv26+OKL3TRVGNqGkipcVR5XXXWV7bzzzu4WhyrUfLbrNhT8o2b7vn372gUXXGBzzTWXK6ufV1M+I0eOdPeOVdFcdtllduihh9q3335rqjh8UnlUZpVx7bXXtqeeesqVu7YyKhhYaqmlbP311zdV6tEkz7vvvts22GADl6cCqTfeeMPkFk3Vt5GkrH59tTooMFh22WVN7sojWmlrOR/s+HX8Z237pWVko+BQlboCMFWw+ina4cOHuzwuuugiF2ToJ8OffPJJv9nwc91113XBlSpYldH/DohafRQo6vgpuPPnkAJPBWeq1C+55BIXFNx6662ztXSoYtd6n3zyicvr008/dZ8KfJQ+/vhjF/gstthiYb66zaV9KAu+yRSA+BYEtTgooFCgqmBXgUGHDh2cZa9evcJA0m2YfxDIiIAq8stenW6LBVfoX53Rwsb1b2mvHtPcVl+0zFXufjd8xe7Hq3+qFeGAAZXW5fppNjXY5oMHNg8XWTBoPThuUKWteulUN6/3puV24+vTrf05U+3voKHwhM1mBhVaQfmMHFNlPYNtKa1w0dSiDQy0f0URHPgvSe1Q27Zt9eG+6HXlqgpSX5b6cv/oo4/cvJVWWslUeZWXl7urr2grg1ugln8UFOgqTF/GSuojUJ/tqlz6Atdvp6vy0pWkb0bXdnPl48u52267uYqlU6dOpn3R1a1P2uY666zjyuivgrXd+pRR2/RBgMqjymyNNdawE0880VRp1ZaSlNWvr6tsXeVuv/327jgpD7WIJEl17dc888xjavl49tlnXcWuc0E+/pdA77//flcRH3jgga6iT5KnltExUwWv47fWWmu546fpquR1DNSCo0BEQYcCG++oZXzSOeCDAn0uvvji4XLy03YV/HkbtZ4oiNtiiy1ccKkA06dddtnF5aXzSMtvs802zlJ5aLskBLIocNrTlbb2FVPt3vemm1oSNl+umT3Ys7k9dei/FXxd+/XujzPsvmD9YUGfhUGfTLe5g0a0DgsENX2QxkyoMrUWfD66yv4vaJlQQHLcwEr7bVyVffjzjPAWQl15FOP8TN1W0Be97qEqGNDVk0/+/rMCAzWv9+7d2wYOHGiPPPKI+9MV6THHHBNejWp6NLVuHfRySZC0nL9yVD5Kunfsr3Lz2a7K5JOaupX8l31N+aj1Q0GOz1vraDvRjpKa75NvSpZXfcqo7ejKXNuRvU/LLbecH6zxM0lZ/cq+bNFKTJWg7pnnStFWBL9uTfZq7lcAoFsxzz33nM0999x23HHHuYpXLUK6PeCv1hXwqVk/SVJQ4JNafmTs+wioE+u9997rZ7s8o4Gfn6GKW7c91NKgY3/CCSe4Vgw9NaLgVRW871eyzDLL+NXMD/t50fPF9zvw55RW0m2L6DkSbogBBApYYI3Fymzz5ZvZdUOnh1fr8wZfu0OObWE7rtrM1I+geqpQp4Bq6fWRM29HaPLQYLjHusH/iVnr/hnpljUlCAz+mvTvsmplKOWUqeBAV2pKujrSPXufdOWpe8+qNFUp6UvzjDPOcF/W77zzjmta1tWjv6eveb6y05ewmrUbkuqzXVUgnTt3dtnqfruSrgxrS8pHV5SqhFQhKemKVPfn60r1KaO2Of/887uAzFf2mqamc7VYqHKrKeVT1o4dO7rNaF/WXHNNNxx9dFABWbRjnQ+itGBt+6UraDn37NnTtXroSZc777zTnn76adthhx3cOaTbGKpQNU0tTd26dXP9LFwh8vxHx0Rl1a2IHj16uLV1bukWwYorrjjb1lRpa3kFNmqVUWuJgheNa7puEajlQElP43gb3wqh/w+q9LWsT75FR+v55WVAQiBrAtsHfQku2bHCPv6lyoZ8O/Ono/8J+pdf+kql3R88LbBacHuhMpgcjQfWDAKK6mmV9v9O0zaVPgq2qaR+BaTcAv9+q+SeX1BTdcWkIOC6665zlaSabdVZTI/g6QtZSRWCOs/pKlFfmu3atXPT9eWrZngl9TtQhaAvUD3P75t23czIP1pfV3GqGGtL+W5X23rvvffcF7u+9FV+VQwVFbXHan4f1cFOV8zqiKfAQk3XdaW6yqirT13BKvCKJl/B6N79X3/95fob6Ln59u3bRxdzw9Ft5FNWBWqq6B599FF3XHXv33fo04Z1DBUs6MkAHfPnn38+zLu2/dJtI1W0uopX65KCKB1TnQva/k033eRaDTTuW1yirTI+E01THwOtE72F5edHP9UfRAHp+++/79a577773PkYXcYPqyxaXvumzq1Kq666qv3www+mgEnng855uarviPJXx8XXXnvNBTa5yipH7Y+CHbW8qG+FtueTpsnXP3mhPg8vv/yyn+227W/VhBMZQKAJBNTRT5X3y0c3d50AdwpaC/p2K7fb9m7umv+fHDHD/u/PKqsIarHzt6uwdZYsszv2mf07VE8ebLpsMztwvXLbfpVm9ss/VfZncDuhvkm3IpR6BE9MVH9Sor7bLMT1ZpcsxFLOKpOuqtTR67bbbgtfSKRgQffWfe95VSS6P67gwHcS03xVcqosDgo66yk4UOcufTnrS3jXXXfNudf6wtbVpB4hW3rppXMuo9sbasXIZ7vakL7Adf9bSU3o6oRXW1I+SyyxhO2///7uyl2Vj8qvfdtjjz3cqlomerslur26yqj7/KpI1dFRTfE+qULV/XhVsMpTtxj0BIS/QvXL6TO6DXX4rK2s0fU0rP3XUyb6U38AbV8tJErbbbed6/ypDn5K6jOgstRlLx+1GihYVGuRkm5d7Ljjjq7lSBWjOvYpadnu3buHfVbcxFn/qJVESU9w+KdYanLWPutFXWqhUNK+HHzwwWHw4SZG/tG+qGVBQYGSPt9++223jxrXExe6TXbzzTe7/DVNtww0LVfSfqhPiDpgqrOlkiz9I5VqRdAtFj1xoqBDLWpqfdhyyy3dsvp/o0BV/R1ICDSlgFoJ1rlyqr10VHPrE3QM1J+SKudNr5vmAof+L1faQes3s7O3Lnd/X/4+8wkHPeXgk24VDD12Zh+Fv4KvlG2DRyKVFHhElwu6Bs2WIpsJ573zY5VNCfok9tum3OYP7kgfH3RoLMZUFjTR5tr/cF91paQ/fbnoqjx6XzhcqAEDuvr1zev5bMY/V+87llVfV2VW64CaxXNdkesqWFesChhqS7ri1JeovnSTpCTb1WNoerRSFbueU1egkE/Svikf7XvSckW3X1MZ1XSvSq/6Y51aV3kqSFKeNVWMWq76NpKUVeuow6Ca9P0VvFqHdHWr3vk+qdwKEHMdTy1T035pnm5FqNm/+tW2ziO1CqgPQW37peOk81/nQpKk7aqfgb99lWSdupbR7TIFZ74vSV3Lq8VL/XDqOsfr2g7zS1cgn+/nsj5z7p0aeuRQfRA+/63KxufIRh0MJwV1vjoS5kp6KkEVuVoaGiPpVsZSweOUP/5V1ai3JqqubtkYxQu3oafXdAGt7wB9v9X2HReuNGsgUy0H0cKrAstVifllhFDbvXgFDUlSvhV30u0q73y+6KNl1b5FO8RF5yUZrqmMtVU6yrOm9aJ5Vt9GkrJqHfUHUMdABYq6faCmdrXGRFNd+dc2vyYvnUO+30I0r+rDCkhqCkqqL6vxus7PXOvUNS3fQMMHWnVtl/kIFLrA5ODifHhwxV5T+r72a1zX2jAm0vmwpu0kna5Wh7ryTLqtQl0u2eVwoZY+o+VSk220Q2VGd6NRi613NvgmdV1xa1wtKyQEEEAAgfQFMttykD5V4+WoF9OQ4gIKlvT+Bv2REEAAAQSaVoCWg6b1J3cEEEAAAQQKToDgoOAOCQVCAAEEEECgaQUIDprWn9wRQAABBBAoOAGCg4I7JBQIAQQQQACBphUgOGhaf3JHAAEEikKgZcW/rykuih1KeScKza/JgwO9xCf6QzopHw+yQwABBBDIIaDv5XxesrbB0gQHORgTTyo0vyYPDvQGN715j4QAAgggUDgC+l7W93PSdETn2t82m3Q7pbpcofk1eXCgH/DRG/FoPSjV/xLsNwIIFJqAvo/1vZzrB9ZqKut+azezkzYnQKjJp7bpcpNfIaUmfwmSfihp/PjxNmLECPfDQvX9vYBCQqUsCCCAQBYFFBSoxUCBgV7X7X/VNum+XLFLha29ZDO75c3p9s4P+oGiml95nHSbxbqc+hjoVoJaDAotMJB5k//wkj/w+pGk0aNHu0CBVgSvwicCCCCQnoD6GOhWgloM8g0M0islOSUVKIofXtKJyMmY9JCzHAIIIIAAAnNOoLBucsy5/WTLCCCAAAIIIJBQgOAgIRSLIYAAAgggUCoCBAelcqTZTwQQQAABBBIKEBwkhGIxBBBAAAEESkWA4KBUjjT7iQACCCCAQEIBgoOEUCyGAAIIIIBAqQgQHJTKkWY/EUAAAQQQSChAcJAQisUQQAABBBAoFQGCg1I50uwnAggggAACCQUIDhJCsRgCCCCAAAKlIkBwUCpHmv1EAAEEEEAgoQDBQUIoFkMAAQQQQKBUBAgOSuVIs58IIIAAAggkFCA4SAjFYggggAACCJSKAMFBqRxp9hMBBBBAAIGEAgQHCaFYDAEEEEAAgVIRIDgolSPNfiKAAAIIIJBQgOAgIRSLIYAAAgggUCoCBAelcqTZTwQQQAABBBIKEBwkhGIxBBBAAAEESkWgYIKDCRMm2FdffVXU7qNGjbI//vijxn38/fffbfTo0Tnnz5gxw/lMmjQp53wmIoAAAggg0FgCBRMc3H333bbllluG+7XOOuvYyJEjw/GsDyj4WWuttez999+vcVfeeustW2+99SxXADBixAhbeeWVTQEGCQEEEEAAgTkpUDDBwQsvvGA77rhjuK+VlZVWVVUVjmd94Nprr7U111zTtt122xp3ZZdddrGll17abrrpptmWeeWVV2zZZZd1f7PNZAICCCCAAAKNKFAQwcHkyZPtqaeeirUcqCJt3bp1I+5q023qt99+szPPPNNOOeWUOgtx2mmn2bnnnmtjx46NLavgaYcddohNYwQBBBBAAIE5IVAQwcE777zj9m2zzTYL9/Gee+6xxRZbzI2rUt16661jLQm77rqrbbHFFrFpO++8s6uEtdKff/5pxx13nK266qpWVlZm88wzjx111FH2119/uW326tXL1l9/fffXs2dP+/zzz8NxTX/mmWfsoYceik3zy+vz3nvvddsZN26cXXXVVda1a1eXj+bdfvvtbp7/p3///jb33HNbdP/8PK2n+T5pn7TNyy67zE+yiRMnmoKD6G2XcCYDCCCAAAIINLJAQQQHr776qrvX3q5du5y7t+SSS9pLL71kX3zxhZv/66+/2hNPPGFa7+uvv3bT1D9BrQ9qllfafffd7frrr7eNNtrILrzwQhck3HzzzXbOOee4+Zqu4OPdd9+1adOmWdu2be3LL79049tvv72bp/mbb755+NetWzc3X+vMN998bjv9+vWzk046yVX+qtBbtGhhhx12mJ1//vluvv559NFHbY899rDmzZuH0/zA4MGD7YcffvCjrrVkr732skGDBoXT3nzzTTe86aabhtMYQAABBBBAYE4JVMypDeez3aeffjrW36D6umo1UFJFusoqq9jQoUPDRd544w1baaWV7OWXX3bTdE//u+++s2HDhlmfPn3cVb1mnHrqqbbAAguYr2j33HNPO++880z3+dUZsmXLlqZtbbzxxq6C79Spk9tetEJWvwG/rZ122sk+/fRTu/rqq02VuVoZlE444QTX8VBBwzHHHOMq+59//tl1JnQLJPhHrR0PP/ywTZ061ZVF+6ZyzT///AnWZhEEEEAAAQQaJtDkLQd6tO+DDz5wtwhq2hVV/uqM5wMAtRiostQ0BQxKzz77rK2xxhq21FJL2TLLLGPTp093TfNjxoyxt99+2+68805XUY8fP94t/9hjj5kq7dNPP90FBpq4+uqr2/777+9uTUyZMsUt5/95/vnnXcW/3XbbuZYITVclrlaMO+64wy/mWgd69OjhxvWEwTfffOOGF1988XCZugb8sgpylNQiUltHxrq2x3wEEEAAAQTyEWjylgNfuW+wwQa1lnu33XazK6+80t0CeO6550x9BtTRb+DAgaYOjbrNoJYAnx5//HHr27fvbI9D+tsBL774oltUHR+jSeXQ7YdPPvnE3erQPN3OUOvAiiuuaAMGDLCKiplsyuPss8+Oru6G1d9BSe8s8B0LF154YTctyT9+Wd0qUV8F9YfQLQ0SAggggAACaQg0ecuBWgPURK9m/dqS+gEoqfleV/xdunRxFaZeHKTbAkq6qlf6+OOP3T1+VeK33Xaba5lQE73eIaBHJJXmmmsu9+krbzcS/KOWACW1PCip5cE/Yvnkk0/GmvbVv0AVt/o5qDOk/1thhRXcugsuuKC1adPGDSuQqZ7+97//VZ/kxv2LkLTukCFD3DSVnYQAAggggEAaAk3acqD3GOjq23cSrG2HdRtBSbcBlDbccEP7559/3LCeQtDVtl6cpKT+Bko33nhj2MNflbw6Ei6xxBJu3tprr+2CCt2i8LcBNEO3D5R0K0MBhfom6Apety00LZr0UiKl5Zdf3i655JJwlr8FoP4R/o2IvuNkuFAw8NFHH0VHw2H/pkjt01133WVqNcnVmTFcgQEEEEAAAQQaUaBJgwM9HaArfz3OV1dSy0L37t3tkUceMXUS1JW//tTUr4pXTyc0azazIcQHEro9oE6IauY/66yzXBY+oDj44INdn4Sjjz7a3Sbo0KGD27YCCy2rzn8nnnii69Og/P7++2+77777wmK2b9/eBR56CkFPRShw6Nixo91///3usUPd9tDTDmo9UPJPWmj4ggsucG9B9J0YNS2a5KLbCepTob4RV1xxRXQ2wwgggAACCMxRgSYNDnTVrqtjVapJkpr3FRxstdVW4eJ6MZCCg+gLgvSkgVoY1FHQtybo8UK9Q0DvFNCtAP/Uw6GHHmr77rtvuD31W/CtEx9++KGbroDBt0b4BXULQ+8d0JW9XtbUu3dvP8sUcKh/hJIPavRqZN2qUGuJboOoNWKbbbZxj1CGKwYDuu2hFg4FOwoS9M6DJMFTdBsMI4AAAggg0BCBsuCee63vKFZlpj9VbHofgO9J35BM/bq6t67fEdDTBXMi6ceKvv/+e3crQf0Dakp6gkEtGHrSwXc2rGnZmqarU+Qvv/zitlH9FoCeltB7FfTuAr28SZ5a1t/iiG7zwQcfdMGKnuDQ7Qq9A2G11VaLLsIwAggggAACdQqonlF9VF5e7l7SpxcCJk1NGhwkLWQxLKe3MKolYPjw4TXujoIG/TiT+lPccsstNS7HDAQQQAABBOoSaEhw0KS3FerasWKaf/HFF5ve9KinD3K9Rln7qrdA6hFKvSqZhAACCCCAQFMJEBykJK9bCK+//rrraFhTlgsttJCpb4I6O5IQQAABBBBoKgFuKzSVPPkigAACCCAwBwUacluhyV+CNAdd2DQCCCCAAAII1EOA4KAeaKyCAAIIIIBAMQsQHBTz0WXfEEAAAQQQqIcAwUE90FgFAQQQQACBYhYgOCjmo8u+IYAAAgggUA8BgoN6oLEKAggggAACxSxAcFDMR5d9QwABBBBAoB4CBAf1QGMVBBBAAAEEilmA4KCYjy77hgACCCCAQD0ECA7qgcYqCCCAAAIIFLMAwUExH132DQEEEEAAgXoIEBzUA41VEEAAAQQQKGYBgoNiPrrsGwIIIIAAAvUQIDioBxqrIIAAAgggUMwCeQcHVVVVxezBviGAAAIIIJB5gYbW1XkFB2VlZTZlypTMo7EDCCCAAAIIFLOA6mrV2fVNeQcHEyZMqG9erIcAAggggAACKQiork4lOFAm+ps4caL9888/KezmB/MKAAAJfElEQVQaWSCAAAIIIIBAvgKqo1VX+3o73/W1fEVdK/nIw2fSrFkz+/vvv93thbnnnttatWrVoOikrvyZjwACCCCAAAK1C6iPweTJk23cuHE2adIkq6ioCIMDX3/XvoX43DqDA7+4Nq7AoLy83E1S5mq2UIH8n1+WTwQQQAABBBBIR8BX/r6eVmCgulp1tqbVJ+UVHPiMfUYzZsyYLTBoaA9Jv20+EUAAAQQQQKBmgWjFr2FfR0cDg+gyNW9p9jmJggNtXJW+z1iffppvNSAomB2XKQgggAACCMxpAV8n+0/fYqBxJf+ZTzkSBQfRjSsTHyj4wCCfDFkWAQQQQAABBBpfwAcH/lM51Ccw0HqJgwOfiQ8MfJCg6SQEEEAAAQQQaHqBaDAQHc63ZHkFB9p4QzLLt3AsjwACCCCAAALJBRqrjs47OIgWsbEKEd0mwwgggAACCCDQtAJ5vSGxaYtK7ggggAACCCCQhgDBQRrK5IEAAggggECGBAgOMnSwKCoCCCCAAAJpCBAcpKFMHggggAACCGRIgOAgQweLoiKAAAIIIJCGAMFBGsrkgQACCCCAQIYECA4ydLAoKgIIIIAAAmkIEBykoUweCCCAAAIIZEiA4CBDB4uiIoAAAgggkIYAwUEayuSBAAIIIIBAhgQIDjJ0sCgqAggggAACaQgQHKShTB4IIIAAAghkSIDgIEMHi6IigAACCCCQhgDBQRrK5IEAAggggECGBAgOMnSwKCoCCCCAAAJpCBAcpKFMHggggAACCGRIgOAgQweLoiKAAAIIIJCGAMFBGsrkgQACCCCAQIYECA4ydLAoKgIIIIAAAmkIEBykoUweCCCAAAIIZEiA4CBDB4uiIoAAAgggkIYAwUEayuSBAAIIIIBAhgQIDjJ0sCgqAggggAACaQgQHKShTB4IIIAAAghkSIDgIEMHi6IigAACCCCQhgDBQRrK5IEAAggggECGBAgOMnSwKCoCCCCAAAJpCBAcpKFMHggggAACCGRIgOAgQweLoiKAAAIIIJCGAMFBGsrkgQACCCCAQIYECA4ydLAoKgIIIIAAAmkIEBykoUweCCCAAAIIZEiA4CBDB4uiIoAAAgggkIYAwUEayuSBAAIIIIBAhgQIDjJ0sCgqAggggAACaQgQHKShTB4IIIAAAghkSIDgIEMHi6IigAACCCCQhgDBQRrK5IEAAggggECGBAgOMnSwKCoCCCCAAAJpCBAcpKFMHggggAACCGRIgOAgQweLoiKAAAIIIJCGAMFBGsrkgQACCCCAQIYECA4ydLAoKgIIIIAAAmkIEBykoUweCCCAAAIIZEiA4CBDB4uiIoAAAgggkIYAwUEayuSBAAIIIIBAhgQIDjJ0sCgqAggggAACaQgQHKShTB4IIIAAAghkSIDgIEMHi6IigAACCCCQhgDBQRrK5IEAAggggECGBAgOMnSwKCoCCCCAAAJpCBAcpKFMHggggAACCGRIgOAgQweLoiKAAAIIIJCGAMFBGsrkgQACCCCAQIYECA4ydLAoKgIIIIAAAmkIEBykoUweCCCAAAIIZEiA4CBDB4uiIoAAAgggkIYAwUEayuSBAAIIIIBAhgQIDjJ0sCgqAggggAACaQgQHKShTB4IIIAAAghkSIDgIEMHi6IigAACCCCQhgDBQRrK5IEAAggggECGBAgOMnSwKCoCCCCAAAJpCBAcpKFMHggggAACCGRIgOAgQweLoiKAAAIIIJCGAMFBGsrkgQACCCCAQIYECA4ydLAoKgIIIIAAAmkIEBykoUweCCCAAAIIZEiA4CBDB4uiIoAAAgggkIYAwUEayuSBAAIIIIBAhgQIDjJ0sCgqAggggAACaQgQHKShTB4IIIAAAghkSIDgIEMHi6IigAACCCCQhgDBQRrK5IEAAggggECGBAgOMnSwKCoCCCCAAAJpCBAcpKFMHggggAACCGRIgOAgQweLoiKAAAIIIJCGAMFBGsrkgQACCCCAQIYECA4ydLAoKgIIIIAAAmkIEBykoUweCCCAAAIIZEiA4CBDB4uiIoAAAgggkIYAwUEayuSBAAIIIIBAhgQIDjJ0sCgqAggggAACaQgQHKShTB4IIIAAAghkSIDgIEMHi6IigAACCCCQhgDBQRrK5IEAAggggECGBAgOMnSwKCoCCCCAAAJpCBAcpKFMHggggAACCGRIgOAgQweLoiKAAAIIIJCGAMFBGsrkgQACCCCAQIYECA4ydLAoKgIIIIAAAmkIEBykoUweCCCAAAIIZEiA4CBDB4uiIoAAAgggkIYAwUEayuSBAAIIIIBAhgQIDjJ0sCgqAggggAACaQgQHKShTB4IIIAAAghkSIDgIEMHi6IigAACCCCQhgDBQRrK5IEAAggggECGBAgOMnSwKCoCCCCAAAJpCBAcpKFMHggggAACCGRIgOAgQweLoiKAAAIIIJCGAMFBGsrkgQACCCCAQIYECA4ydLAoKgIIIIAAAmkIEBykoUweCCCAAAIIZEiA4CBDB4uiIoAAAgggkIYAwUEayuSBAAIIIIBAhgQIDjJ0sCgqAggggAACaQgQHKShTB4IIIAAAghkSIDgIEMHi6IigAACCCCQhgDBQRrK5IEAAggggECGBAgOMnSwKCoCCCCAAAJpCBAcpKFMHggggAACCGRIgOAgQweLoiKAAAIIIJCGAMFBGsrkgQACCCCAQIYECA4ydLAoKgIIIIAAAmkIEBykoUweCCCAAAIIZEiA4CBDB4uiIoAAAgggkIYAwUEayuSBAAIIIIBAhgQIDjJ0sCgqAggggAACaQgQHKShTB4IIIAAAghkSIDgIEMHi6IigAACCCCQhgDBQRrK5IEAAggggECGBAgOMnSwKCoCCCCAAAJpCBAcpKFMHggggAACCGRIgOAgQweLoiKAAAIIIJCGAMFBGsrkgQACCCCAQIYECA4ydLAoKgIIIIAAAmkIEBykoUweCCCAAAIIZEiA4CBDB4uiIoAAAgggkIYAwUEayuSBAAIIIIBAhgQIDjJ0sCgqAggggAACaQgQHKShTB4IIIAAAghkSIDgIEMHi6IigAACCCCQhgDBQRrK5IEAAggggECGBAgOMnSwKCoCCCCAAAJpCBAcpKFMHggggAACCGRIgOAgQweLoiKAAAIIIJCGAMFBGsrkgQACCCCAQIYECA4ydLAoKgIIIIAAAmkIEBykoUweCCCAAAIIZEiA4CBDB4uiIoAAAgggkIbA/wOVYe07yv46kQAAAABJRU5ErkJggg==;" parent="1" vertex="1">
                    <mxGeometry x="1720" y="1237.5" width="585.97" height="595" as="geometry"/>
                </mxCell>
                <mxCell id="148" value="API request" style="text;html=1;align=center;verticalAlign=middle;resizable=0;points=[];autosize=1;strokeColor=none;fillColor=none;fontSize=20;fontFamily=Architects Daughter;sketch=1;hachureGap=4;jiggle=2;curveFitting=1;fontSource=https%3A%2F%2Ffonts.googleapis.com%2Fcss%3Ffamily%3DArchitects%2BDaughter;rotation=-75;" parent="1" vertex="1">
                    <mxGeometry x="900" y="2060" width="130" height="40" as="geometry"/>
                </mxCell>
                <mxCell id="149" value="API Response" style="text;html=1;align=center;verticalAlign=middle;resizable=0;points=[];autosize=1;strokeColor=none;fillColor=none;fontSize=20;fontFamily=Architects Daughter;sketch=1;hachureGap=4;jiggle=2;curveFitting=1;fontSource=https%3A%2F%2Ffonts.googleapis.com%2Fcss%3Ffamily%3DArchitects%2BDaughter;rotation=-50;" parent="1" vertex="1">
                    <mxGeometry x="1010" y="2144" width="150" height="40" as="geometry"/>
                </mxCell>
                <mxCell id="150" value="API request" style="text;html=1;align=center;verticalAlign=middle;resizable=0;points=[];autosize=1;strokeColor=none;fillColor=none;fontSize=20;fontFamily=Architects Daughter;sketch=1;hachureGap=4;jiggle=2;curveFitting=1;fontSource=https%3A%2F%2Ffonts.googleapis.com%2Fcss%3Ffamily%3DArchitects%2BDaughter;rotation=50;" parent="1" vertex="1">
                    <mxGeometry x="1245" y="2144" width="130" height="40" as="geometry"/>
                </mxCell>
                <mxCell id="151" value="API Response" style="text;html=1;align=center;verticalAlign=middle;resizable=0;points=[];autosize=1;strokeColor=none;fillColor=none;fontSize=20;fontFamily=Architects Daughter;sketch=1;hachureGap=4;jiggle=2;curveFitting=1;fontSource=https%3A%2F%2Ffonts.googleapis.com%2Fcss%3Ffamily%3DArchitects%2BDaughter;rotation=-75;" parent="1" vertex="1">
                    <mxGeometry x="1350" y="2020" width="150" height="40" as="geometry"/>
                </mxCell>
                <mxCell id="152" value="API request" style="text;html=1;align=center;verticalAlign=middle;resizable=0;points=[];autosize=1;strokeColor=none;fillColor=none;fontSize=20;fontFamily=Architects Daughter;sketch=1;hachureGap=4;jiggle=2;curveFitting=1;fontSource=https%3A%2F%2Ffonts.googleapis.com%2Fcss%3Ffamily%3DArchitects%2BDaughter;rotation=-65;" parent="1" vertex="1">
                    <mxGeometry x="1000" y="1765" width="130" height="40" as="geometry"/>
                </mxCell>
                <mxCell id="157" style="edgeStyle=none;sketch=1;hachureGap=4;jiggle=2;curveFitting=1;html=1;fontFamily=Architects Daughter;fontSource=https%3A%2F%2Ffonts.googleapis.com%2Fcss%3Ffamily%3DArchitects%2BDaughter;fontSize=16;" parent="1" source="156" edge="1">
                    <mxGeometry relative="1" as="geometry">
                        <mxPoint x="1710" y="1640" as="targetPoint"/>
                    </mxGeometry>
                </mxCell>
                <mxCell id="156" value="Phonetic&lt;br&gt;Dictionary Word" style="text;html=1;align=center;verticalAlign=middle;resizable=0;points=[];autosize=1;strokeColor=none;fillColor=none;fontSize=20;fontFamily=Architects Daughter;fontColor=#B266FF;sketch=1;hachureGap=4;jiggle=2;curveFitting=1;fontSource=https%3A%2F%2Ffonts.googleapis.com%2Fcss%3Ffamily%3DArchitects%2BDaughter;" parent="1" vertex="1">
                    <mxGeometry x="1420" y="1625" width="180" height="60" as="geometry"/>
                </mxCell>
                <mxCell id="158" value="i) transition over to NEXT.js" style="text;html=1;align=center;verticalAlign=middle;resizable=0;points=[];autosize=1;strokeColor=none;fillColor=none;fontSize=20;fontFamily=Architects Daughter;sketch=1;hachureGap=4;jiggle=2;curveFitting=1;fontSource=https%3A%2F%2Ffonts.googleapis.com%2Fcss%3Ffamily%3DArchitects%2BDaughter;" vertex="1" parent="1">
                    <mxGeometry x="1660" y="1960" width="280" height="40" as="geometry"/>
                </mxCell>
                <mxCell id="159" value="&lt;span style=&quot;&quot;&gt;options:&lt;/span&gt;" style="whiteSpace=wrap;html=1;sketch=1;hachureGap=4;jiggle=2;curveFitting=1;fontFamily=Architects Daughter;fontSource=https%3A%2F%2Ffonts.googleapis.com%2Fcss%3Ffamily%3DArchitects%2BDaughter;fontSize=20;" vertex="1" parent="1">
                    <mxGeometry x="1952.98" y="1880" width="120" height="60" as="geometry"/>
                </mxCell>
                <mxCell id="160" value="ii) stay vanilla" style="text;html=1;align=center;verticalAlign=middle;resizable=0;points=[];autosize=1;strokeColor=none;fillColor=none;fontSize=20;fontFamily=Architects Daughter;sketch=1;hachureGap=4;jiggle=2;curveFitting=1;fontSource=https%3A%2F%2Ffonts.googleapis.com%2Fcss%3Ffamily%3DArchitects%2BDaughter;" vertex="1" parent="1">
                    <mxGeometry x="2280" y="1960" width="140" height="40" as="geometry"/>
                </mxCell>
                <mxCell id="162" value="+ familair&amp;nbsp;&lt;br&gt;+ already started&amp;nbsp;&lt;br&gt;+ current knowledge&lt;br&gt;&lt;br&gt;- inevitable change&lt;br&gt;- not learning new stuff&lt;br&gt;- not used for a reason (in industry)" style="text;html=1;align=center;verticalAlign=middle;resizable=0;points=[];autosize=1;strokeColor=none;fillColor=none;fontSize=20;fontFamily=Architects Daughter;sketch=1;hachureGap=4;jiggle=2;curveFitting=1;fontSource=https%3A%2F%2Ffonts.googleapis.com%2Fcss%3Ffamily%3DArchitects%2BDaughter;" vertex="1" parent="1">
                    <mxGeometry x="2145" y="2010" width="360" height="180" as="geometry"/>
                </mxCell>
                <mxCell id="163" value="- unfamiliar ground&lt;br&gt;-slow to startup&lt;br&gt;&lt;br&gt;+ learning in line with our studies&lt;br&gt;+&amp;nbsp;" style="text;html=1;align=center;verticalAlign=middle;resizable=0;points=[];autosize=1;strokeColor=none;fillColor=none;fontSize=20;fontFamily=Architects Daughter;sketch=1;hachureGap=4;jiggle=2;curveFitting=1;fontSource=https%3A%2F%2Ffonts.googleapis.com%2Fcss%3Ffamily%3DArchitects%2BDaughter;" vertex="1" parent="1">
                    <mxGeometry x="1630" y="1995" width="320" height="130" as="geometry"/>
                </mxCell>
                <mxCell id="164" value="MVP - Operation Next.js" style="text;html=1;align=center;verticalAlign=middle;resizable=0;points=[];autosize=1;strokeColor=none;fillColor=none;fontSize=20;fontFamily=Architects Daughter;sketch=1;hachureGap=4;jiggle=2;curveFitting=1;fontSource=https%3A%2F%2Ffonts.googleapis.com%2Fcss%3Ffamily%3DArchitects%2BDaughter;" vertex="1" parent="1">
                    <mxGeometry x="2570" y="1210" width="240" height="40" as="geometry"/>
                </mxCell>
                <mxCell id="172" style="edgeStyle=none;sketch=1;hachureGap=4;jiggle=2;curveFitting=1;html=1;entryX=0.5;entryY=0;entryDx=0;entryDy=0;fontFamily=Architects Daughter;fontSource=https%3A%2F%2Ffonts.googleapis.com%2Fcss%3Ffamily%3DArchitects%2BDaughter;fontSize=16;" edge="1" parent="1" source="166" target="171">
                    <mxGeometry relative="1" as="geometry"/>
                </mxCell>
                <mxCell id="166" value="Plan" style="whiteSpace=wrap;html=1;sketch=1;hachureGap=4;jiggle=2;curveFitting=1;fontFamily=Architects Daughter;fontSource=https%3A%2F%2Ffonts.googleapis.com%2Fcss%3Ffamily%3DArchitects%2BDaughter;fontSize=20;" vertex="1" parent="1">
                    <mxGeometry x="2810" y="1270" width="120" height="60" as="geometry"/>
                </mxCell>
                <mxCell id="167" value="Concerns:&lt;br&gt;&lt;br&gt;How to implement current JS&amp;nbsp;&lt;br&gt;FE/BE logic in Next.js?" style="text;html=1;align=center;verticalAlign=middle;resizable=0;points=[];autosize=1;strokeColor=none;fillColor=none;fontSize=20;fontFamily=Architects Daughter;sketch=1;hachureGap=4;jiggle=2;curveFitting=1;fontSource=https%3A%2F%2Ffonts.googleapis.com%2Fcss%3Ffamily%3DArchitects%2BDaughter;" vertex="1" parent="1">
                    <mxGeometry x="2990" y="1060" width="310" height="110" as="geometry"/>
                </mxCell>
                <mxCell id="175" value="" style="edgeStyle=none;sketch=1;hachureGap=4;jiggle=2;curveFitting=1;html=1;fontFamily=Architects Daughter;fontSource=https%3A%2F%2Ffonts.googleapis.com%2Fcss%3Ffamily%3DArchitects%2BDaughter;fontSize=16;" edge="1" parent="1" source="168" target="174">
                    <mxGeometry relative="1" as="geometry"/>
                </mxCell>
                <mxCell id="168" value="start NJS server" style="whiteSpace=wrap;html=1;fontSize=20;fontFamily=Architects Daughter;sketch=1;hachureGap=4;jiggle=2;curveFitting=1;fontSource=https%3A%2F%2Ffonts.googleapis.com%2Fcss%3Ffamily%3DArchitects%2BDaughter;" vertex="1" parent="1">
                    <mxGeometry x="2810" y="1480" width="120" height="60" as="geometry"/>
                </mxCell>
                <mxCell id="173" style="edgeStyle=none;sketch=1;hachureGap=4;jiggle=2;curveFitting=1;html=1;entryX=0.5;entryY=0;entryDx=0;entryDy=0;fontFamily=Architects Daughter;fontSource=https%3A%2F%2Ffonts.googleapis.com%2Fcss%3Ffamily%3DArchitects%2BDaughter;fontSize=16;" edge="1" parent="1" source="171" target="168">
                    <mxGeometry relative="1" as="geometry"/>
                </mxCell>
                <mxCell id="171" value="NEW REPO" style="whiteSpace=wrap;html=1;fontSize=20;fontFamily=Architects Daughter;sketch=1;hachureGap=4;jiggle=2;curveFitting=1;fontSource=https%3A%2F%2Ffonts.googleapis.com%2Fcss%3Ffamily%3DArchitects%2BDaughter;" vertex="1" parent="1">
                    <mxGeometry x="2810" y="1380" width="120" height="60" as="geometry"/>
                </mxCell>
                <mxCell id="174" value="copy across main game page" style="whiteSpace=wrap;html=1;fontSize=20;fontFamily=Architects Daughter;sketch=1;hachureGap=4;jiggle=2;curveFitting=1;fontSource=https%3A%2F%2Ffonts.googleapis.com%2Fcss%3Ffamily%3DArchitects%2BDaughter;" vertex="1" parent="1">
                    <mxGeometry x="2795" y="1620" width="150" height="100" as="geometry"/>
                </mxCell>
            </root>
        </mxGraphModel>
    </diagram>
</mxfile>